<svg xmlns="http://www.w3.org/2000/svg" width="192" height="80" fill="none"><path fill="#fff" fill-rule="evenodd" d="M14.444 43.772a3.158 3.158 0 0 1 3.158 3.158V51h6.33V40.463a3.158 3.158 0 0 0-3.157-3.158H10.106v6.467h4.338z" clip-rule="evenodd" opacity=".4"/><path fill="#fff" d="M24.61 33.07a3.158 3.158 0 0 0 3.158 3.158h4.338v6.467H21.437a3.158 3.158 0 0 1-3.158-3.159V29h6.33v4.07z"/><path fill="#fff" fill-rule="evenodd" d="M103.652 48.205c1.538.816 3.259 1.224 5.164 1.224 1.905 0 3.617-.408 5.138-1.224 1.52-.816 2.717-1.937 3.591-3.36.874-1.442 1.311-3.056 1.311-4.845 0-1.788-.437-3.395-1.311-4.819-.874-1.44-2.071-2.57-3.591-3.385-1.521-.817-3.233-1.225-5.138-1.225-1.905 0-3.626.408-5.164 1.225-1.52.816-2.717 1.944-3.591 3.386-.857 1.423-1.284 3.03-1.284 4.818 0 1.789.427 3.403 1.284 4.845.874 1.423 2.071 2.544 3.591 3.36zm8.1-3.1c-.874.486-1.852.73-2.936.73-1.083 0-2.062-.244-2.936-.73a5.531 5.531 0 0 1-2.071-2.084c-.489-.885-.733-1.892-.733-3.021s.244-2.136.733-3.021a5.343 5.343 0 0 1 2.071-2.058c.874-.504 1.853-.755 2.936-.755 1.084 0 2.062.252 2.936.755a5.168 5.168 0 0 1 2.045 2.058c.506.885.76 1.892.76 3.021s-.254 2.136-.76 3.021a5.347 5.347 0 0 1-2.045 2.084zm-64.242.105h8.52l1.625 3.906h4.457l-8.205-18.232h-4.194l-8.179 18.232h4.352l1.625-3.907zm4.274-10.185 2.91 6.98h-5.82l2.91-6.98z" clip-rule="evenodd"/><path fill="#fff" d="M65.65 47.267c1.467 1.441 3.512 2.162 6.133 2.162s4.657-.72 6.108-2.162c1.468-1.441 2.201-3.499 2.201-6.173v-10.21h-4.194v10.054c0 1.684-.349 2.925-1.048 3.724-.699.782-1.713 1.172-3.04 1.172-2.727 0-4.09-1.632-4.09-4.896V30.884h-4.246v10.21c0 2.674.725 4.732 2.175 6.173zm22.133-12.945h-5.872v-3.438h15.99v3.438H92.03v14.794h-4.247V34.322z"/><path fill="#fff" fill-rule="evenodd" d="M122.048 30.884h8.335c1.993 0 3.749.382 5.269 1.146 1.538.747 2.726 1.806 3.565 3.178.857 1.371 1.285 2.969 1.285 4.792s-.428 3.42-1.285 4.792c-.839 1.372-2.027 2.44-3.565 3.204-1.52.747-3.276 1.12-5.269 1.12h-8.335V30.884zm8.126 14.768c1.834 0 3.294-.504 4.378-1.51 1.1-1.025 1.651-2.406 1.651-4.142 0-1.736-.551-3.108-1.651-4.115-1.084-1.025-2.544-1.537-4.378-1.537h-3.88v11.304h3.88zm17.253 2.553c1.538.816 3.258 1.224 5.164 1.224 1.905 0 3.617-.408 5.137-1.224 1.52-.816 2.718-1.937 3.592-3.36.874-1.442 1.31-3.056 1.31-4.845 0-1.788-.436-3.395-1.31-4.819-.874-1.44-2.072-2.57-3.592-3.385-1.52-.817-3.232-1.225-5.137-1.225-1.906 0-3.626.408-5.164 1.225-1.521.816-2.718 1.944-3.592 3.386-.856 1.423-1.284 3.03-1.284 4.818 0 1.789.428 3.403 1.284 4.845.874 1.423 2.071 2.544 3.592 3.36zm8.099-3.1c-.874.486-1.852.73-2.935.73-1.084 0-2.062-.244-2.936-.73a5.531 5.531 0 0 1-2.071-2.084c-.489-.885-.734-1.892-.734-3.021s.245-2.136.734-3.021a5.343 5.343 0 0 1 2.071-2.058c.874-.504 1.852-.755 2.936-.755 1.083 0 2.061.252 2.935.755a5.162 5.162 0 0 1 2.045 2.058c.507.885.76 1.892.76 3.021s-.253 2.136-.76 3.021a5.34 5.34 0 0 1-2.045 2.084z" clip-rule="evenodd"/><path fill="#fff" d="M174.603 49.429c-1.87 0-3.565-.4-5.085-1.198-1.503-.817-2.691-1.937-3.565-3.36-.857-1.442-1.285-3.065-1.285-4.871 0-1.806.428-3.42 1.285-4.844a9.067 9.067 0 0 1 3.565-3.36c1.52-.817 3.224-1.225 5.111-1.225 1.59 0 3.023.278 4.299.834a8.615 8.615 0 0 1 3.251 2.396l-2.727 2.5c-1.24-1.423-2.778-2.135-4.613-2.135-1.136 0-2.149.252-3.041.755a5.297 5.297 0 0 0-2.097 2.058c-.489.885-.734 1.892-.734 3.021s.245 2.136.734 3.021a5.48 5.48 0 0 0 2.097 2.084c.892.486 1.905.73 3.041.73 1.835 0 3.373-.721 4.613-2.163l2.727 2.5a8.497 8.497 0 0 1-3.251 2.423c-1.293.556-2.735.834-4.325.834z"/></svg>