<svg xmlns="http://www.w3.org/2000/svg" width="192" height="80" fill="none"><path fill="#fff" fill-rule="evenodd" d="M40.926 19C24.186 19 20 23.2 20 40s4.185 21 20.926 21c16.74 0 20.926-4.2 20.926-21s-4.185-21-20.926-21z" clip-rule="evenodd" opacity=".1"/><path fill="#fff" d="M30.14 32.453c0-3.806 3.075-6.89 6.867-6.89s6.866 3.085 6.866 6.89v20.672h-4.577c-5.056 0-9.155-4.113-9.155-9.188V32.453z" opacity=".64"/><path fill="#fff" d="M53.029 43.938c0 5.074-4.099 9.187-9.155 9.187-5.056 0-9.155-4.113-9.155-9.188 0-5.074 4.099-9.187 9.155-9.187 5.056 0 9.155 4.113 9.155 9.188z"/><path fill="#fff" fill-rule="evenodd" d="M143.074 48.717c0-.574-.212-.936-.546-1.33l-4.494-5.227 4.281-3.323c.455-.363.638-.786.638-1.3 0-.936-.608-1.57-1.549-1.57-.516 0-.88.18-1.306.543l-6.862 5.71V31.223c0-1.088-.577-1.722-1.609-1.722-1.002 0-1.61.634-1.61 1.722v17.374c0 1.088.608 1.723 1.61 1.723 1.032 0 1.609-.635 1.609-1.723v-2.75l2.277-1.752 4.585 5.53c.334.423.82.695 1.367.695.971 0 1.609-.635 1.609-1.602zM95.007 44.73c0-2.266-1.063-3.777-3.098-4.502v-.06c1.67-.787 2.52-2.237 2.52-4.261 0-3.656-2.094-5.348-6.497-5.348H79.43c-1.185 0-1.883.695-1.883 1.873v15.833c0 1.178.698 1.873 1.883 1.873h9.078c4.434 0 6.499-1.722 6.499-5.408zm-4.13-8.491c0 1.692-1.032 2.478-3.097 2.478h-6.741V33.73h6.74c2.066 0 3.098.816 3.098 2.508zm.516 8.128c0 1.723-1.032 2.569-3.097 2.569h-7.257v-5.077h7.257c2.034 0 3.097.786 3.097 2.508zm20.587 4.23V37.69c0-1.058-.607-1.723-1.639-1.723-.972 0-1.579.665-1.579 1.722v.152h-.061c-1.063-1.33-2.733-2.055-4.858-2.055-4.13 0-6.863 2.93-6.863 7.373 0 4.411 2.733 7.342 6.863 7.342 2.095 0 3.765-.755 4.858-2.055h.061v.151c0 1.088.607 1.723 1.579 1.723 1.032 0 1.639-.635 1.639-1.723zm-7.5-9.88c2.521 0 4.282 1.813 4.282 4.411 0 2.569-1.761 4.382-4.282 4.382-2.49 0-4.22-1.783-4.22-4.382 0-2.628 1.73-4.411 4.22-4.411zm16.792 2.84c4.555 0 6.255 1.36 6.255 4.381 0 2.84-2.307 4.533-6.164 4.533-3.006 0-4.828-.484-6.285-1.722a1.464 1.464 0 0 1-.486-1.118c0-.937.607-1.541 1.458-1.541.303 0 .607.09.941.332 1.154.846 2.429 1.239 4.099 1.239 2.004 0 3.188-.635 3.188-1.723 0-.936-.82-1.36-3.431-1.36-4.433 0-6.133-1.298-6.133-4.2 0-2.81 2.368-4.562 6.194-4.562 2.399 0 3.947.423 5.344 1.42.456.333.638.756.638 1.24 0 .936-.608 1.54-1.458 1.54-.455 0-.82-.211-1.154-.423-.82-.604-1.943-.936-3.158-.936-1.913 0-3.127.664-3.127 1.752 0 .816.759 1.148 3.279 1.148zm30.851 8.914c-4.646 0-7.682-2.992-7.682-7.343 0-4.38 3.066-7.372 7.53-7.372 4.069 0 7.197 2.93 7.197 6.496v.151c0 1.148-.76 1.874-1.913 1.874h-9.414c.395 2.054 2.035 3.323 4.282 3.323 1.518 0 2.702-.604 3.401-1.42.364-.423.729-.574 1.214-.574.942 0 1.519.574 1.519 1.48 0 .363-.122.665-.365.968-1.275 1.54-3.279 2.417-5.769 2.417zm-4.282-8.763h8.199c-.455-1.873-2.004-3.082-4.039-3.082-2.034 0-3.704 1.209-4.16 3.082zm18.918 8.763c2.277 0 3.947-.846 4.767-2.448.122-.241.213-.544.182-.876 0-.967-.637-1.48-1.488-1.48-.577 0-.971.271-1.245.694-.455.726-1.153 1.149-2.095 1.149-1.427 0-2.308-.937-2.308-2.599v-5.862h4.859c1.002 0 1.609-.544 1.609-1.45 0-.937-.607-1.48-1.609-1.48h-4.859v-3.083c0-1.087-.607-1.722-1.609-1.722s-1.609.635-1.609 1.722V44.82c0 3.536 2.034 5.65 5.405 5.65z" clip-rule="evenodd"/></svg>