<svg xmlns="http://www.w3.org/2000/svg" width="192" height="80" fill="none"><path fill="#fff" d="M148.579 26.109a.331.331 0 0 1 .223-.109.21.21 0 0 1 .148.073.224.224 0 0 1 .041.073.21.21 0 0 1 .008.082.35.35 0 0 1-.111.232c-2.945 3.583-5.086 7.773-5.086 13.584s2.152 9.913 5.086 13.496a.35.35 0 0 1 .111.232.21.21 0 0 1-.008.082.215.215 0 0 1-.189.146.33.33 0 0 1-.223-.109l-12.553-11.878a2.521 2.521 0 0 1-.755-.887 2.469 2.469 0 0 1 0-2.245 2.52 2.52 0 0 1 .755-.886l12.553-11.883" opacity=".5"/><path fill="#fff" d="M158.021 25c-4.978 0-6.923 6.863-6.923 15.044 0 8.181 1.945 14.956 6.923 14.956 2.986 0 5.534-1.703 5.544-3.103a1.156 1.156 0 0 0-.385-.855c-1.417-1.329-1.969-2.661-1.976-3.834 0-2.24 1.991-3.91 3.833-3.91 2.544 0 4.026 1.938 4.026 4.443 0 2.375-1.043 4.358-2.18 5.94a.347.347 0 0 0-.065.202.184.184 0 0 0 .006.08.221.221 0 0 0 .038.073.21.21 0 0 0 .145.073.367.367 0 0 0 .236-.12l12.718-11.962c.322-.236.584-.541.765-.893a2.479 2.479 0 0 0 0-2.261 2.562 2.562 0 0 0-.765-.893l-12.718-11.966a.367.367 0 0 0-.236-.12c-.117 0-.189.103-.189.23 0 .072.023.142.065.201 1.13 1.584 2.18 3.562 2.18 5.937 0 2.506-1.493 4.446-4.026 4.446-1.842 0-3.841-1.672-3.833-3.912 0-1.17.559-2.502 1.976-3.834a1.177 1.177 0 0 0 .385-.856c0-1.413-2.543-3.103-5.544-3.103M27.979 45.108c-.012-.572.12-1.14.384-1.652a3.561 3.561 0 0 1 1.13-1.288 6.55 6.55 0 0 1 3.823-1.06 7.305 7.305 0 0 1 2.642.46v-1.414c-.022-1.414-.57-2.213-2.202-2.23a5.807 5.807 0 0 0-1.544.261c.054.2.083.405.087.612a1.8 1.8 0 0 1-.447 1.226 1.631 1.631 0 0 1-.567.39 1.67 1.67 0 0 1-.683.126 1.708 1.708 0 0 1-.638-.13 1.67 1.67 0 0 1-.537-.359 1.583 1.583 0 0 1-.474-1.155c.021-1.713 2.158-2.865 5.014-2.869 2.267 0 3.688.523 4.451 1.474.69.855.727 2.099.727 3.859v4.594c0 .887.53 1.127 1.664 1.3h.13v.128c-.065 1.208-.98 1.71-1.961 1.784h-.255a2.554 2.554 0 0 1-1.388-.365 2.454 2.454 0 0 1-.952-1.048 6.119 6.119 0 0 1-3.75 1.413c-2.634 0-4.636-1.731-4.64-4.1m80.886 3.503a3.274 3.274 0 0 1-.473-1.19 8.238 8.238 0 0 1-.519.515 4.798 4.798 0 0 1-3.271 1.258 4.364 4.364 0 0 1-1.814-.331 4.262 4.262 0 0 1-1.5-1.047c-1.151-1.34-1.144-3.036-1.144-5.446v-2.322c-.025-.94-.327-1.261-1.225-1.283a3.4 3.4 0 0 0-.363.022h-.106l-.04-.1a1.32 1.32 0 0 1-.105-.501c.03-1.124 1.49-1.725 2.348-1.898.283-.05.569-.082.857-.092.288-.02.577.024.844.13.268.106.506.27.697.481.33.456.49 1.007.454 1.563l-.022 3.965c0 1.463.106 2.558.44 3.265.334.707.846 1.029 1.784 1.036a2.23 2.23 0 0 0 1.171-.248c.359-.187.657-.469.86-.813a4.519 4.519 0 0 0 .538-2.325v-3.209c-.025-.94-.331-1.261-1.224-1.283a3.51 3.51 0 0 0-.364.022h-.109l-.04-.1a1.334 1.334 0 0 1-.131-.448c.029-1.124 1.49-1.725 2.351-1.898.283-.051.57-.082.858-.092.288-.02.578.024.846.13.267.106.507.27.698.481.333.454.495 1.006.458 1.563 0 .455-.044 1.261-.044 4.64 0 1.413-.025 2.187-.025 2.417.022.972.363 1.413 1.286 1.413h.422l.04.1c.066.154.102.32.105.487-.036 1.096-1.501 1.537-2.351 1.7a5.744 5.744 0 0 1-.803.088 1.615 1.615 0 0 1-.767-.13 1.571 1.571 0 0 1-.61-.47m-46.348-5.793a6.894 6.894 0 0 1 1.817-4.88 6.441 6.441 0 0 1 2.194-1.452 6.592 6.592 0 0 1 2.61-.467 5.367 5.367 0 0 1 2.173.369c.69.272 1.311.683 1.824 1.207a4.772 4.772 0 0 1 1.29 3.237 3.56 3.56 0 0 1-.436 1.767l-.04.071h-8.01c.135 2.272 1.621 3.863 4.212 3.887a4.465 4.465 0 0 0 1.762-.349 4.362 4.362 0 0 0 1.468-1.011l.087-.106.113.081c.162.117.291.272.374.45.084.18.119.376.102.571 0 1.311-1.588 2.99-5.087 2.99a6.611 6.611 0 0 1-2.49-.486 6.466 6.466 0 0 1-2.105-1.382 6.264 6.264 0 0 1-1.393-2.065 6.125 6.125 0 0 1-.466-2.428M91 49.172a6.702 6.702 0 0 1-2.516-.456 6.56 6.56 0 0 1-2.142-1.36 6.592 6.592 0 0 1-1.465-2.197 6.45 6.45 0 0 1-.472-2.578 6.307 6.307 0 0 1 .485-2.514 6.45 6.45 0 0 1 1.45-2.134 6.657 6.657 0 0 1 2.19-1.419 6.806 6.806 0 0 1 2.583-.481 6.73 6.73 0 0 1 2.561.434c.816.31 1.56.775 2.188 1.369a6.556 6.556 0 0 1 1.886 3.401 6.44 6.44 0 0 1-.392 3.847 6.655 6.655 0 0 1-2.538 2.975 6.934 6.934 0 0 1-3.815 1.085l-.003.028zm24.611-.381c-.56-.149-.919-.445-.916-.894.009-.198.061-.392.153-.57l.029-.063h.069c.318-.06.618-.193.876-.385.334-.265.461-.636.461-1.679v-5.269c-.025-.883-.232-1.19-.988-1.212a3.366 3.366 0 0 0-.6.064l-.116.02-.044-.105a1.53 1.53 0 0 1-.116-.562c.018-1.06 1.199-1.59 1.991-1.83.289-.09.591-.138.894-.142 1.09 0 1.664.753 1.911 1.72.706-1.126 1.817-1.872 2.94-1.876 1.043 0 2.089.665 2.093 1.923.019.466-.152.92-.476 1.263a1.84 1.84 0 0 1-1.254.571 1.691 1.691 0 0 1-1.066-.346 1.616 1.616 0 0 1-.598-.926c-.61.194-1.475.943-1.482 3.534v3.18c0 1.039.152 1.414.454 1.675.363.2.761.33 1.174.385h.069l.029.064c.1.191.157.4.167.615 0 .424-.324.707-.847.855-.772.17-1.563.24-2.354.209a9.812 9.812 0 0 1-2.453-.22zm-38.88 0c-.56-.149-.923-.45-.923-.898a1.33 1.33 0 0 1 .148-.566l.03-.063h.072c.321-.061.624-.192.887-.382.323-.268.454-.64.461-1.678v-6.92l-1.904-.063-.032-.082a1.647 1.647 0 0 1-.146-.65 1.086 1.086 0 0 1 .353-.812 1.15 1.15 0 0 1 .85-.308h.825v-.764c0-1.844.363-2.894.836-3.597.726-1.12 2.03-1.89 3.997-1.89 2.467 0 4.538 1.116 4.55 2.911.007.225-.032.45-.114.66a1.68 1.68 0 0 1-.368.564c-.16.162-.353.292-.565.381a1.778 1.778 0 0 1-.673.138 1.721 1.721 0 0 1-1.167-.476 1.63 1.63 0 0 1-.504-1.129c.004-.324.102-.64.283-.912a2.012 2.012 0 0 0-1.228-.353c-.767 0-1.184.261-1.454.689a3.452 3.452 0 0 0-.363 1.767v1.983h3.27l.037.084c.092.21.14.436.142.665a1.21 1.21 0 0 1-.313.852 1.277 1.277 0 0 1-.828.413c-.242.02-.485.028-.727.025-.545 0-1.09-.04-1.483-.046v6.841c0 1.036.178 1.414.502 1.676.323.261 1.09.353 1.333.385h.07l.029.067c.083.163.129.341.134.523 0 .474-.396.77-.996.93-.841.182-1.704.26-2.565.23a9.86 9.86 0 0 1-2.464-.22m-22.82 0c-.555-.148-.915-.445-.911-.894.01-.197.061-.39.152-.566l.03-.063h.072a2.21 2.21 0 0 0 .887-.382c.323-.268.458-.64.461-1.678V39.93c-.025-.883-.24-1.19-.992-1.212a3.36 3.36 0 0 0-.6.064l-.115.02-.044-.105a1.482 1.482 0 0 1-.12-.573c.018-1.06 1.199-1.58 1.998-1.82.285-.09.581-.137.88-.141 1.09 0 1.671.742 1.926 1.696.726-1.113 1.838-1.848 2.946-1.855 1.029 0 2.086.66 2.09 1.919a1.74 1.74 0 0 1-.482 1.268 1.839 1.839 0 0 1-1.262.566 1.676 1.676 0 0 1-1.062-.346 1.595 1.595 0 0 1-.588-.926c-.618.198-1.494.943-1.504 3.534v3.18c0 1.04.16 1.414.48 1.675.36.202.757.333 1.17.385h.068l.033.064c.097.19.152.397.16.608 0 .424-.323.707-.85.859a9.24 9.24 0 0 1-2.362.212 9.803 9.803 0 0 1-2.453-.22m-10.785 0c-.556-.148-.912-.445-.912-.894a1.36 1.36 0 0 1 .15-.565l.028-.064h.073c.321-.06.624-.19.887-.381.323-.269.457-.64.461-1.679V39.93c-.03-.883-.24-1.19-.995-1.212a3.36 3.36 0 0 0-.6.064l-.116.02-.044-.105a1.48 1.48 0 0 1-.12-.573c.018-1.06 1.2-1.58 1.999-1.82.283-.089.578-.137.875-.141 1.09 0 1.672.742 1.926 1.693.727-1.11 1.839-1.845 2.947-1.852 1.028 0 2.09.66 2.093 1.922a1.74 1.74 0 0 1-.481 1.269 1.839 1.839 0 0 1-1.263.566 1.68 1.68 0 0 1-1.06-.347 1.599 1.599 0 0 1-.59-.926c-.617.198-1.493.944-1.5 3.534v3.18c0 1.04.156 1.414.479 1.676.36.202.758.333 1.17.385h.073l.029.064c.098.189.154.396.163.607 0 .425-.327.707-.854.86a9.23 9.23 0 0 1-2.361.211 9.812 9.812 0 0 1-2.453-.219m44.97-6.562c0 3.445 1.548 4.93 3.06 4.947 1.726 0 2.976-1.484 2.987-4.385 0-1.517-.346-2.729-.909-3.534a2.593 2.593 0 0 0-.94-.911c-.39-.22-.83-.34-1.28-.348-1.795 0-2.907 1.58-2.907 4.263m-54.203.727c-1.425 0-2.38.665-2.388 1.951 0 1.216.85 2.032 2.18 2.04a3.14 3.14 0 0 0 1.274-.32c.396-.194.743-.47 1.02-.808V44.08a.886.886 0 0 0-.166-.418.921.921 0 0 0-.35-.289 3.074 3.074 0 0 0-1.57-.353m36.852-2.085c.255 0 .324-.06.364-.142.055-.146.076-.303.061-.46a2.281 2.281 0 0 0-.197-.896 2.335 2.335 0 0 0-.537-.753 2.411 2.411 0 0 0-.793-.495 2.464 2.464 0 0 0-.929-.16c-1.857 0-2.609 1.446-2.725 2.906h4.756zm-57.18 5.972c-1.566-1.562-2.575-3.845-2.575-6.686a9.457 9.457 0 0 1 2.543-6.627 7.99 7.99 0 0 1 2.65-1.866 8.186 8.186 0 0 1 3.197-.678c3.964 0 6.762 2.704 6.776 5.036 0 1.248-.813 2.212-1.91 2.216a2.094 2.094 0 0 1-1.422-.523 1.934 1.934 0 0 1-.458-.663 1.89 1.89 0 0 1-.145-.786c.006-.279.069-.554.184-.81a2.12 2.12 0 0 1 .488-.678c-.537-.894-1.57-1.6-3.186-1.6-1.374 0-2.544.706-3.365 1.915-.821 1.208-1.326 2.972-1.326 5.046 0 2.075.512 3.813 1.37 5.029.857 1.216 2.038 1.905 3.412 1.908 1.617 0 2.648-.706 3.168-1.604a2.094 2.094 0 0 1-.669-1.48 1.938 1.938 0 0 1 .604-1.453 2.101 2.101 0 0 1 1.42-.527c1.09 0 1.908.962 1.912 2.205 0 2.343-2.813 5.03-6.777 5.04a8.405 8.405 0 0 1-3.199-.626 8.22 8.22 0 0 1-2.695-1.788m0 0c-1.566-1.562-2.576-3.845-2.576-6.686a9.458 9.458 0 0 1 2.543-6.626 7.99 7.99 0 0 1 2.65-1.867 8.187 8.187 0 0 1 3.197-.678c3.964 0 6.762 2.704 6.777 5.036 0 1.248-.814 2.212-1.912 2.216a2.094 2.094 0 0 1-1.42-.523 1.935 1.935 0 0 1-.459-.663 1.89 1.89 0 0 1-.144-.786c.006-.279.068-.554.183-.81a2.12 2.12 0 0 1 .489-.678c-.534-.894-1.566-1.6-3.183-1.6-1.374 0-2.544.706-3.365 1.915-.821 1.208-1.326 2.972-1.326 5.046 0 2.075.512 3.813 1.37 5.029.857 1.216 2.038 1.905 3.412 1.908 1.617 0 2.648-.706 3.168-1.604a2.094 2.094 0 0 1-.669-1.48 1.938 1.938 0 0 1 .604-1.453 2.101 2.101 0 0 1 1.42-.527c1.09 0 1.908.962 1.912 2.205 0 2.343-2.813 5.03-6.777 5.04a8.405 8.405 0 0 1-3.199-.626 8.22 8.22 0 0 1-2.695-1.788zm0 0c-1.566-1.562-2.576-3.845-2.576-6.686a9.458 9.458 0 0 1 2.543-6.626 7.99 7.99 0 0 1 2.65-1.867 8.187 8.187 0 0 1 3.197-.678c3.964 0 6.762 2.704 6.777 5.036 0 1.248-.814 2.212-1.912 2.216a2.094 2.094 0 0 1-1.42-.523 1.935 1.935 0 0 1-.459-.663 1.89 1.89 0 0 1-.144-.786c.006-.279.068-.554.183-.81a2.12 2.12 0 0 1 .489-.678c-.534-.894-1.566-1.6-3.183-1.6-1.374 0-2.544.706-3.365 1.915-.821 1.208-1.326 2.972-1.326 5.046 0 2.075.512 3.813 1.37 5.029.857 1.216 2.038 1.905 3.412 1.908 1.617 0 2.648-.706 3.168-1.604a2.094 2.094 0 0 1-.669-1.48 1.938 1.938 0 0 1 .604-1.453 2.101 2.101 0 0 1 1.42-.527c1.09 0 1.908.962 1.912 2.205 0 2.343-2.813 5.03-6.777 5.04a8.405 8.405 0 0 1-3.199-.626 8.22 8.22 0 0 1-2.695-1.788z"/></svg>