<svg xmlns="http://www.w3.org/2000/svg" width="192" height="80" fill="none"><path fill="#fff" d="m60.374 26.624 7.57 13.388-7.57 13.34a3.178 3.178 0 0 1-2.751 1.625h-13.3a3.179 3.179 0 0 1-2.752-1.624l-1-1.764h16.983l-1.887-3.318H38.684l-1.887-3.317H53.78l-1.864-3.318H34.932L34 40.012l.955-1.717h16.984l1.887-3.318H36.842l1.887-3.341h16.984l1.887-3.318H40.616l.955-1.694A3.179 3.179 0 0 1 44.322 25h13.3a3.18 3.18 0 0 1 2.752 1.624zM76.448 39.13c0-5.591 3.593-9.466 8.754-9.466 2 0 3.82.557 5.274 1.67v3.504c-1.546-1.485-3.296-2.227-5.183-2.227-3.502 0-5.753 2.506-5.753 6.52 0 3.944 2.251 6.52 5.752 6.52 1.888 0 3.615-.743 5.184-2.228v3.503c-1.455 1.114-3.274 1.67-5.275 1.67-5.16 0-8.753-3.874-8.753-9.466z"/><path fill="#fff" fill-rule="evenodd" d="M95.888 42.563c.272 2.274 1.66 3.387 4.092 3.387 1.614 0 3.092-.44 4.252-1.253v2.715c-1.183.766-2.706 1.183-4.343 1.183-4.206 0-6.82-2.645-6.82-6.867 0-4.153 2.5-7.007 6.16-7.007 3.411 0 5.707 2.645 5.707 6.659v1.183h-9.049zm.068-2.274h6.252c-.205-1.972-1.228-2.993-2.956-2.993-1.773-.023-2.955 1.067-3.296 2.993z" clip-rule="evenodd"/><path fill="#fff" d="M118.965 48.317V39.57c0-2.924-1.751-4.85-4.457-4.85-1.682 0-3.046.79-3.91 2.205v-1.926h-2.66v13.318h2.864v-8.98c.546-1.16 1.66-1.879 2.888-1.879 1.478 0 2.41.998 2.41 2.669v8.19h2.865zm2.773-.905v-2.97c1.342 1.068 2.91 1.578 4.752 1.578 1.728 0 2.546-.464 2.546-1.439 0-.765-.454-1.23-1.478-1.461l-2.454-.557c-2.092-.487-3.207-1.787-3.207-3.736 0-2.529 2.001-4.106 5.275-4.106 1.615 0 3.024.348 4.047.997v2.97c-1.136-.951-2.5-1.438-4.092-1.438-1.615 0-2.456.51-2.456 1.461 0 .697.455 1.137 1.364 1.323l2.456.58c2.205.534 3.365 1.787 3.365 3.736 0 2.621-2.092 4.199-5.479 4.199-1.797.046-3.365-.371-4.639-1.137zM145.27 35h-2.842v8.91c-.523 1.206-1.591 1.925-2.819 1.925-1.455 0-2.41-1.02-2.41-2.668V35h-2.865v8.747c0 2.877 1.796 4.826 4.434 4.826 1.704 0 3.046-.812 3.91-2.274v1.996h2.592V35zm3.069 12.412v-2.97c1.342 1.068 2.91 1.578 4.752 1.578 1.728 0 2.546-.464 2.546-1.439 0-.765-.454-1.23-1.478-1.461l-2.454-.557c-2.092-.487-3.207-1.787-3.207-3.736 0-2.529 2.001-4.106 5.275-4.106 1.615 0 3.025.348 4.047.997v2.97c-1.136-.951-2.5-1.438-4.092-1.438-1.615 0-2.456.51-2.456 1.461 0 .697.455 1.137 1.365 1.323l2.455.58c2.205.534 3.365 1.787 3.365 3.736 0 2.621-2.092 4.199-5.479 4.199-1.819.046-3.365-.371-4.639-1.137z"/></svg>