<svg xmlns="http://www.w3.org/2000/svg" width="192" height="80" fill="none"><path fill="#fff" d="M67.435 35.864c-3.393 0-6.162-2.77-6.162-6.161 0-3.393 2.77-6.162 6.162-6.162s6.161 2.77 6.161 6.162c-.017 3.41-2.769 6.161-6.161 6.161zm0-13.811c-4.223 0-7.668 3.444-7.668 7.667s3.445 7.667 7.668 7.667c4.223 0 7.667-3.444 7.667-7.667s-3.444-7.668-7.667-7.668zm66.081 7.753a528.125 528.125 0 0 1-3.272-1.696c-1.315-.675-1.782-1.263-1.782-2.267 0-1.402 1.142-2.302 2.925-2.302 1.038 0 2.059.45 2.648.796a.863.863 0 0 0 .363.087.754.754 0 0 0 .762-.745.779.779 0 0 0-.381-.657c-.744-.416-2.008-.987-3.375-.987-2.613 0-4.431 1.558-4.431 3.808 0 2.008 1.316 2.96 2.614 3.617.363.19 2.89 1.489 3.271 1.696 1.004.52 1.558 1.316 1.558 2.216 0 1.211-1.022 2.492-2.925 2.492-1.852 0-3.289-1.246-3.67-1.627l-.121-.121-1.125 1.021.139.121c.502.485 2.302 2.094 4.777 2.094 2.769 0 4.43-2.042 4.43-4.015-.017-1.436-.882-2.735-2.405-3.53zM51.72 23.558a6.17 6.17 0 0 1 4.36 1.8c.278.277.797.277 1.074 0a.76.76 0 0 0 .225-.536.694.694 0 0 0-.225-.537l-.087-.086a7.63 7.63 0 0 0-5.33-2.147c-4.223 0-7.668 3.445-7.668 7.668 0 4.223 3.445 7.667 7.668 7.667 2.232 0 4.24-.952 5.642-2.492l-1.073-1.073a6.172 6.172 0 0 1-4.57 2.042c-3.392 0-6.16-2.77-6.16-6.161-.018-3.375 2.751-6.145 6.143-6.145zm51.957 0a6.1 6.1 0 0 1 4.344 1.8c.277.277.796.277 1.073 0a.757.757 0 0 0 .225-.536.757.757 0 0 0-.225-.537l-.086-.086a7.631 7.631 0 0 0-5.331-2.147c-4.223 0-7.667 3.445-7.667 7.668 0 4.223 3.444 7.667 7.667 7.667 2.233 0 4.24-.952 5.642-2.492l-1.073-1.073a6.144 6.144 0 0 1-4.569 2.042c-3.392 0-6.162-2.77-6.162-6.161 0-3.375 2.77-6.145 6.162-6.145zm-12.981-1.506c-.277 0-.502.19-.623.416-.12.242-4.517 11.077-4.517 11.077s-4.396-10.852-4.517-11.077c-.121-.242-.347-.416-.624-.416-.328 0-.588.243-.675.554-.086.312-2.561 13.968-2.561 13.968 0 .052-.017.086-.017.138 0 .38.311.675.675.675a.703.703 0 0 0 .675-.554l2.146-11.682s4.136 10.211 4.257 10.453c.122.243.347.433.64.433.278 0 .52-.19.641-.433.121-.242 4.258-10.453 4.258-10.453l2.233 12.15h1.384s-2.613-14.383-2.7-14.695c-.103-.311-.346-.554-.675-.554zm24.975 8.083 2.285-5.608 2.285 5.608h-4.57zm2.268-8.083c-.295 0-.502.19-.641.433-.121.242-5.677 13.95-5.677 13.95a.706.706 0 0 0-.052.26c0 .38.295.675.675.675a.68.68 0 0 0 .641-.433l2.163-5.296h5.798l2.302 5.642h1.471s-5.902-14.573-6.023-14.815c-.138-.225-.363-.416-.657-.416zm29.838.831a.768.768 0 0 0-.761-.761H138.5a.757.757 0 0 0-.761.761c0 .416.328.745.761.745h3.583v13.655h1.384V23.628h3.566c.415.017.744-.33.744-.745zM89.9 42.528c-.761 0-1.229.536-1.229 1.194v14.14h2.458v-14.14c0-.658-.467-1.194-1.229-1.194zm-27.883 9.276v-8.082c0-.658-.484-1.194-1.228-1.194-.762 0-1.23.536-1.23 1.194v7.996c0 3.427 2.407 6.213 6.266 6.213 3.842 0 6.266-2.786 6.266-6.213v-9.121h-2.475v9.19c0 2.025-1.35 3.825-3.79 3.825-2.459.017-3.809-1.783-3.809-3.808zm59.522-6.784c.813 0 1.298-.52 1.298-1.194 0-.675-.502-1.195-1.298-1.195h-7.529c-.693 0-1.194.502-1.194 1.195v12.877c0 .674.501 1.176 1.194 1.176h8.74v-2.388h-7.477v-4.43h5.643c.848 0 1.332-.503 1.332-1.195 0-.692-.467-1.194-1.332-1.194h-5.643V45.02h6.266zm-70.2 10.488h-3.843v-4.552h3.843c1.765 0 2.613 1.021 2.613 2.285 0 1.246-.883 2.267-2.613 2.267zm-3.843-10.506h3.687c1.384 0 2.06.831 2.06 1.852 0 1.022-.745 1.852-2.06 1.852h-3.687v-3.704zm6.698 4.604c.416-.26 1.54-1.142 1.54-3.132 0-2.337-1.678-3.877-4.24-3.877h-5.261c-.71 0-1.194.484-1.194 1.194v14.054h6.767c2.734 0 4.638-1.99 4.638-4.552 0-2.7-1.817-3.479-2.25-3.687zm43.01-7.078c-.744 0-1.229.536-1.229 1.176v13.05c0 .658.571 1.177 1.229 1.177.64 0 1.212-.519 1.212-1.177V47.34s5.988 7.65 7.563 9.675c.398.502.675.935 1.385.935.709 0 1.194-.52 1.194-1.177v-14.14h-2.423V53.19s-6.664-8.55-7.598-9.744c-.433-.554-.762-.917-1.333-.917zM74.946 55.681c.312.398 1.748 2.268 4.916 2.268 3.115 0 5.227-1.783 5.227-4.293 0-1.644-.64-2.96-3.081-4.136-.658-.312-2.475-1.195-2.475-1.195-.97-.467-1.402-1.02-1.402-1.782 0-.796.658-1.662 2.267-1.662a4.6 4.6 0 0 1 1.99.468c.191.086.624.294 1.04.294.536 0 1.124-.38 1.124-1.16 0-.657-.467-1.004-.883-1.194-.657-.312-1.678-.761-3.392-.761-2.717 0-4.725 1.713-4.725 4.101 0 2.181 1.471 3.272 3.237 4.12.329.155 1.644.796 2.007.969 1.125.536 1.714 1.056 1.714 1.99 0 1.021-.952 1.87-2.389 1.87-2.06 0-3.167-1.35-3.357-1.576l-1.818 1.68zm50.331 0c.312.398 1.765 2.268 4.933 2.268 3.098 0 5.209-1.783 5.209-4.293 0-1.644-.64-2.96-3.08-4.136-.641-.312-2.475-1.195-2.475-1.195-.97-.467-1.402-1.02-1.402-1.782 0-.796.657-1.662 2.267-1.662.917 0 1.61.294 1.99.468.191.086.623.294 1.039.294.536 0 1.125-.38 1.125-1.16 0-.657-.467-1.004-.883-1.194-.658-.312-1.696-.761-3.392-.761-2.717 0-4.725 1.713-4.725 4.101 0 2.181 1.471 3.272 3.236 4.12.347.155 1.662.796 2.025.969 1.108.536 1.697 1.056 1.697 1.99 0 1.021-.952 1.87-2.389 1.87-2.077 0-3.167-1.35-3.358-1.576l-1.817 1.68zm12.479 0c.311.398 1.748 2.268 4.915 2.268 3.098 0 5.227-1.783 5.227-4.293 0-1.644-.658-2.96-3.081-4.136-.657-.312-2.492-1.195-2.492-1.195-.952-.467-1.385-1.02-1.385-1.782 0-.796.658-1.662 2.25-1.662.918 0 1.627.294 2.008.468.173.086.606.294 1.021.294.537 0 1.125-.38 1.125-1.16 0-.657-.467-1.004-.882-1.194-.658-.312-1.679-.761-3.393-.761-2.717 0-4.725 1.713-4.725 4.101 0 2.181 1.454 3.272 3.237 4.12.329.155 1.644.796 2.008.969 1.125.536 1.713 1.056 1.713 1.99 0 1.021-.952 1.87-2.388 1.87-2.06 0-3.168-1.35-3.358-1.576l-1.8 1.68z"/></svg>