<svg xmlns="http://www.w3.org/2000/svg" width="192" height="80" fill="none"><path fill="#fff" d="M70.114 46.64c.886 0 1.64-.199 2.264-.595a3.694 3.694 0 0 0 1.4-1.583 5.15 5.15 0 0 0 0-4.268 3.706 3.706 0 0 0-1.4-1.58c-.623-.393-1.378-.59-2.264-.59H68.58a.217.217 0 0 0-.216.217v8.183a.216.216 0 0 0 .216.215h1.534zM65.101 35.5a.215.215 0 0 1 .216-.215h5.1c1.462 0 2.737.319 3.825.956a6.52 6.52 0 0 1 2.497 2.557 7.662 7.662 0 0 1 0 7.076 6.439 6.439 0 0 1-2.497 2.558c-1.087.63-2.362.945-3.825.945h-5.1a.216.216 0 0 1-.216-.215V35.5zm26.318 12.962c-.932-.837-1.423-1.993-1.471-3.47a.218.218 0 0 1 .132-.207.216.216 0 0 1 .085-.018H93a.215.215 0 0 1 .216.204c.033.668.236 1.197.609 1.588.409.43.97.644 1.68.644.604 0 1.07-.134 1.4-.403.33-.268.493-.65.49-1.147 0-.43-.124-.775-.371-1.037-.248-.261-.694-.52-1.339-.774l-2.537-.987c-.94-.35-1.651-.849-2.134-1.5-.483-.65-.725-1.432-.725-2.345a3.852 3.852 0 0 1 .614-2.165 4 4 0 0 1 1.752-1.45c.758-.342 1.64-.513 2.647-.513 1.022 0 1.921.184 2.7.554a4.26 4.26 0 0 1 1.81 1.56c.401.64.622 1.374.64 2.128a.21.21 0 0 1-.059.16.212.212 0 0 1-.157.068h-2.829a.216.216 0 0 1-.216-.204c-.031-.56-.197-.995-.497-1.306-.335-.35-.818-.524-1.45-.523-.523 0-.935.123-1.238.371a1.247 1.247 0 0 0-.452 1.018 1.311 1.311 0 0 0 .442.996c.295.276.792.554 1.49.835l2.336.926c.966.377 1.68.894 2.144 1.55.463.658.695 1.463.694 2.417a4.104 4.104 0 0 1-.644 2.295 4.179 4.179 0 0 1-1.812 1.52c-.778.355-1.684.533-2.718.534-1.731 0-3.087-.44-4.067-1.32zM115.18 35.07h2.828a.212.212 0 0 1 .152.062.22.22 0 0 1 .063.153v10.978a.218.218 0 0 0 .217.216h4.805c.058 0 .113.022.153.063.041.04.064.095.064.152v2.468a.214.214 0 0 1-.217.216h-8.065a.22.22 0 0 1-.153-.063.202.202 0 0 1-.046-.07.215.215 0 0 1-.017-.083V35.285c0-.028.006-.057.017-.083a.217.217 0 0 1 .199-.133zm23.435.215h2.997a.217.217 0 0 1 .191.114l4.424 8.248a.216.216 0 0 0 .407-.103v-8.041a.217.217 0 0 1 .215-.216h2.688c.029 0 .057.005.083.016a.21.21 0 0 1 .118.117.214.214 0 0 1 .016.082v13.662a.214.214 0 0 1-.217.215h-2.991a.216.216 0 0 1-.196-.111l-4.425-8.249a.215.215 0 0 0-.406.098v8.042a.214.214 0 0 1-.064.152.214.214 0 0 1-.152.064h-2.689a.214.214 0 0 1-.215-.216V35.5a.216.216 0 0 1 .216-.216zm12.77 0h8.184a.218.218 0 0 1 .217.216v2.185a.216.216 0 0 1-.064.153.216.216 0 0 1-.153.063h-4.922a.215.215 0 0 0-.153.063.214.214 0 0 0-.064.153v2.769a.217.217 0 0 0 .217.216h4.922a.217.217 0 0 1 .217.221v2.125a.214.214 0 0 1-.064.153.217.217 0 0 1-.153.063h-4.922a.215.215 0 0 0-.153.063.214.214 0 0 0-.064.153v2.668a.214.214 0 0 0 .064.153.217.217 0 0 0 .153.063h4.922a.216.216 0 0 1 .217.217v2.185a.218.218 0 0 1-.217.216h-8.184a.218.218 0 0 1-.153-.064.218.218 0 0 1-.063-.152V35.5c0-.058.023-.112.063-.153a.218.218 0 0 1 .153-.063zM81.861 44.31l1.393-4.921a.159.159 0 0 1 .306 0l1.392 4.921a.208.208 0 0 1-.2.266h-2.69a.21.21 0 0 1-.2-.266zm7.897 4.86-4.684-13.777a.158.158 0 0 0-.15-.108H81.87a.157.157 0 0 0-.15.108L77.056 49.17a.158.158 0 0 0 .15.21h3.057a.216.216 0 0 0 .208-.158l.589-2.086h4.69l.588 2.086a.216.216 0 0 0 .208.157h3.058a.16.16 0 0 0 .129-.066.16.16 0 0 0 .02-.143m39.494-4.86 1.392-4.921a.166.166 0 0 1 .057-.084.16.16 0 0 1 .096-.032.156.156 0 0 1 .153.116l1.394 4.921a.22.22 0 0 1 .004.096.23.23 0 0 1-.039.087.215.215 0 0 1-.167.083h-2.689a.213.213 0 0 1-.164-.085.225.225 0 0 1-.037-.087.2.2 0 0 1 .005-.094h-.005zm7.896 4.86-4.684-13.775a.154.154 0 0 0-.15-.108h-3.054a.156.156 0 0 0-.15.108l-4.664 13.774a.157.157 0 0 0-.006.075.147.147 0 0 0 .028.07.154.154 0 0 0 .129.065h3.057a.219.219 0 0 0 .209-.157l.588-2.086h4.689l.589 2.086a.22.22 0 0 0 .077.114.217.217 0 0 0 .13.043h3.058a.17.17 0 0 0 .073-.017.164.164 0 0 0 .084-.118.156.156 0 0 0-.007-.075m-23.878-13.884h-2.829a.217.217 0 0 0-.216.216v5.265a.215.215 0 0 1-.064.153.216.216 0 0 1-.153.064h-4.439a.214.214 0 0 1-.2-.134.214.214 0 0 1-.016-.083v-5.373a.218.218 0 0 0-.217-.216h-2.829a.217.217 0 0 0-.216.216v13.769a.217.217 0 0 0 .216.216h2.829a.218.218 0 0 0 .217-.216v-5.166a.214.214 0 0 1 .216-.216h4.439a.218.218 0 0 1 .217.216v5.166a.217.217 0 0 0 .216.216h2.829a.218.218 0 0 0 .153-.064.218.218 0 0 0 .063-.152V35.5a.218.218 0 0 0-.063-.153.218.218 0 0 0-.153-.063zm-67.567 1.656 3.574 1.313c.578.204 1.281-.07 1.281-.497v-9.056c0-.207-.173-.392-.453-.49L46.521 26.9c-.577-.204-1.28.068-1.28.49v9.056c0 .207.174.397.453.496zm0 16.256 3.574 1.313c.578.204 1.281-.068 1.281-.496v-9.056c0-.206-.173-.397-.453-.496l-3.575-1.312c-.577-.204-1.28.069-1.28.496V52.7c0 .207.174.397.453.495m-6.62-19.282 3.575 1.312c.577.204 1.275-.069 1.275-.496v-9.852c0-.207-.174-.398-.453-.497l-3.57-1.31c-.578-.205-1.28.067-1.28.49v9.857c0 .206.173.398.453.496zm0 21.706 3.575 1.312c.577.204 1.275-.068 1.275-.496v-9.827c0-.207-.174-.397-.453-.496L39.9 44.8c-.578-.203-1.28.068-1.28.496v9.826c0 .207.173.398.453.497zm-1.765-30.373c0-.207-.175-.392-.454-.496l-3.574-1.312c-.578-.204-1.281.069-1.281.496v30.82c0 .207.174.398.453.496l3.575 1.313c.577.203 1.28-.069 1.28-.496v-30.82zm19.405 8.182-3.575-1.312c-.578-.204-1.275.069-1.275.496v14.874c0 .207.174.397.453.495l3.575 1.312c.578.204 1.28-.068 1.28-.495V33.925c0-.207-.174-.398-.453-.497"/></svg>