<svg xmlns="http://www.w3.org/2000/svg" width="192" height="80" fill="none"><path fill="#fff" d="M74.966 39.744c0-6.073-3.27-10.747-11.593-10.747h-8.9v21.487h8.898c8.324 0 11.596-4.675 11.596-10.741v.001zm-6.055 0c0 4.24-2.36 5.816-5.631 5.816h-3.028V33.92h3.028c3.272 0 5.631 1.581 5.631 5.823v.001zm7.437 10.74h16.826v-4.89H82.131v-3.686h9.696v-4.644H82.13v-3.372h10.766v-4.895h-16.55v21.487zm36.403-14.023c0-5.42-3.424-7.464-8.745-7.464h-9.203v21.487h5.778v-6.562h3.424c5.321 0 8.746-2.044 8.746-7.46zm-5.989 0c0 2.103-.978 2.971-3.334 2.971h-2.847v-5.946h2.847c2.355 0 3.334.868 3.334 2.975zm6.625-2.449h6.695v16.472h5.78V34.012h6.7v-5.015h-19.175v5.015zm16.774 13.463c0 1.944 1.556 3.522 3.472 3.522 1.925 0 3.496-1.578 3.496-3.522 0-1.944-1.571-3.533-3.497-3.533-1.915 0-3.471 1.59-3.471 3.533zm.667 0c0-1.604 1.252-2.917 2.804-2.917 1.558 0 2.823 1.313 2.823 2.917 0 1.606-1.265 2.904-2.823 2.904-1.553 0-2.804-1.298-2.804-2.904zm1.175 1.744h1.099V48.02h.626l.655 1.199h1.188l-.792-1.419c.363-.152.639-.568.639-1.036 0-.812-.519-1.204-1.399-1.204h-2.016v3.659zm2.303-2.436c0 .291-.181.416-.53.416h-.674v-.77h.673c.35 0 .531.091.531.354z"/></svg>