<svg xmlns="http://www.w3.org/2000/svg" width="192" height="80" fill="none"><path fill="#fff" d="m89.996 49.25-.025-.076-.032-.083-.034-.074-.025-.075-.032-.075-.034-.082-.024-.075-.034-.075-.032-.074-.026-.075-.033-.083-.024-.075-.033-.075-.034-.074-.025-.075-.032-.083-.033-.074-.025-.075-.034-.075-.032-.082-.025-.076-.034-.074-.032.075-.025.075-.034.082-.033.075-.024.075-.034.074-.033.083-.032.075-.026.074-.033.075-.033.075-.025.083-.033.075-.033.074-.025.075-.033.075-.033.082-.033.075-.025.075-.033.074-.033.083-.025.075-.033.075h1.398l-.033-.075zm2.243-18.314c.768 0 1.138-.37 1.138-1.168v-5.013c0-.797-.37-1.167-1.138-1.167h-1.253v7.348h1.253z"/><path fill="#fff" fill-rule="evenodd" d="M77.087 14h36.826c2.985 0 4.087 1.097 4.087 4.07v35.885c0 .337-.014.65-.044.939l-.016.162c-.058.592-.115 1.176-.671 1.832-.059.07-.678.529-.678.529l-.171.084a9.976 9.976 0 0 1-.765.349l-18.133 7.565c-.942.43-1.336.598-2.02.584h-.005c-.683.014-1.077-.154-2.019-.584L75.344 57.85a9.82 9.82 0 0 1-.765-.35l-.17-.083s-.62-.459-.678-.529c-.556-.656-.613-1.24-.671-1.832-.006-.054-.01-.108-.017-.162a9.181 9.181 0 0 1-.043-.939V18.071C73 15.097 74.102 14 77.087 14zm31.285 23.174v-4.5h2.989v4.642c0 2.478-1.224 3.703-3.7 3.703h-1.509c-2.476 0-3.7-1.225-3.7-3.703V24.442c0-2.478 1.224-3.703 3.7-3.703h1.481c2.476 0 3.671 1.197 3.671 3.674v4.074h-2.988v-3.903c0-.797-.371-1.167-1.139-1.167h-.513c-.796 0-1.167.37-1.167 1.167v12.59c0 .797.371 1.167 1.167 1.167h.57c.768 0 1.138-.37 1.138-1.167zm-25.688-5.099h3.587v-2.763h-3.587v-5.64h3.73V20.91h-6.775v19.938h6.831v-2.763h-3.786v-6.01zm28.763 18.002-.009.083-.008.09-.017.083-.024.083-.016.075-.026.083-.033.074-.033.066-.033.075-.083.132-.049.066-.042.067-.049.057-.058.058-.05.05-.066.058-.058.05-.066.05-.066.04-.066.05-.075.041-.075.033-.074.042-.083.033-.083.033-.082.025-.083.025-.075.024-.082.017-.149.033-.083.017-.083.008-.074.008-.083.009-.091.008-.083.008h-.347l-.083-.008h-.091l-.166-.017-.091-.008-.082-.017-.083-.008-.166-.033-.082-.017-.083-.016-.083-.025-.074-.016-.166-.05-.074-.033-.083-.025-.074-.025-.083-.033-.075-.033-.074-.033-.074-.041-.075-.033-.074-.042-.067-.04-.074-.042-.066-.042-.067-.041-.264-.199-.059-.05-.066-.057.05-.066.058-.059.05-.066.058-.066.05-.058.049-.066.058-.066.049-.058.059-.066.049-.058.058-.067.05-.066.049-.058.058-.066.05-.066.058-.058.05-.066.066.05.074.049.066.05.075.05.066.04.075.05.065.042.075.033.066.041.075.033.074.033.075.034.074.024.075.033.165.05.074.025.249.05.091.008.083.016h.083l.09.009h.182l.091-.009.083-.016.075-.017.074-.016.067-.025.057-.033.067-.05.049-.058.033-.066.025-.075.009-.082v-.017l-.009-.1-.033-.082-.041-.058-.058-.05-.067-.05-.066-.032-.074-.033-.083-.033-.099-.042-.058-.016-.066-.017-.075-.025-.074-.016-.083-.025-.083-.017-.091-.025-.083-.016-.09-.025-.083-.017-.083-.024-.083-.017-.082-.025-.075-.024-.083-.017-.149-.05-.074-.025-.091-.033-.249-.1-.074-.04-.083-.042-.066-.041-.074-.042-.066-.05-.067-.04-.058-.05-.058-.058-.057-.058-.1-.116-.041-.058-.041-.066-.042-.075-.033-.057-.025-.066-.025-.075-.024-.066-.017-.083-.017-.074-.016-.166-.009-.09v-.191l.009-.083.008-.075.008-.082.034-.15.024-.074.017-.074.099-.224.041-.074.042-.075.049-.066.05-.066.058-.067.058-.057.058-.067.066-.058.058-.041.066-.05.067-.05.065-.04.075-.042.075-.033.074-.042.075-.033.082-.024.083-.034.075-.024.066-.017.149-.033.083-.017.074-.016.248-.025.083-.008h.356l.182.016h.082l.092.008.082.017.091.008.083.017.075.016.082.017.083.017.074.016.083.025.075.025.074.016.083.033.075.025.148.067.083.033.075.041.066.033.074.042.075.04.066.042.075.05.066.041.066.05.132.1-.049.066-.042.066-.049.066-.05.066-.049.075-.042.066-.05.066-.049.066-.042.067-.049.066-.05.066-.042.066-.049.075-.05.066-.049.066-.042.066-.049.066-.067-.05-.074-.04-.066-.042-.067-.05-.074-.033-.066-.041-.075-.033-.066-.033-.075-.033-.066-.033-.074-.025-.066-.034-.091-.024-.083-.025-.083-.025-.248-.05-.166-.016-.074-.008h-.182l-.091.016-.083.017-.074.016-.066.033-.058.033-.075.067-.05.074-.032.075-.009.082v.017l.009.108.041.09.033.05.058.058.074.042.066.041.083.033.091.033.1.033.066.017.066.025.075.016.074.025.082.017.183.05.091.024.091.017.082.025.091.024.083.017.166.05.074.024.083.025.149.05.091.032.083.042.082.033.083.041.075.042.074.041.066.042.067.05.066.04.132.116.058.067.058.058.049.066.05.074.041.066.042.075.033.066.05.15.016.074.033.165.009.083.008.091v.199l-.008.09zm-10.545 1.655v-6.025h4.783v1.366h-3.203v.985h2.88v1.282h-2.88v1.026h3.244v1.366h-4.824zm-2.819 0v-3.563l-.041.066-.05.075-.041.067-.05.066-.041.074-.05.067-.041.066-.042.075-.049.066-.042.066-.05.066-.04.075-.05.067-.041.066-.042.074-.05.067-.041.066-.05.075-.04.066-.05.066-.042.075-.041.066-.05.067-.041.074-.05.067-.041.066-.05.066-.042.075-.04.066-.05.067-.042.074-.05.066-.041.066-.05.076-.041.066h-.033l-.05-.075-.041-.066-.05-.075-.041-.066-.05-.075-.041-.066-.05-.075-.041-.066-.05-.075-.041-.066-.05-.075-.041-.066-.05-.075-.041-.066-.05-.075-.041-.066-.05-.074-.05-.067-.041-.075-.05-.066-.041-.074-.05-.066-.041-.075-.05-.067-.041-.074-.05-.066-.041-.075-.05-.067-.04-.074-.05-.066-.042-.075-.05-.066-.041-.075-.05-.066v3.546H93.35v-6.025h1.697l.04.066.042.075.05.065.041.075.042.066.04.075.042.065.05.075.083.132.04.074.042.067.05.074.041.066.042.074.041.066.05.067.041.074.041.066.042.074.041.067.05.074.042.066.04.074.042.066.041.066.05.075.042.066.04.075.042.065.041.075.05.066.042.074.04.066.042-.066.042-.074.05-.066.04-.075.042-.066.041-.074.05-.066.042-.075.041-.066.041-.066.05-.074.041-.066.042-.074.041-.067.05-.074.041-.066.042-.074.04-.067.042-.066.05-.074.041-.066.042-.074.04-.067.05-.074.042-.066.041-.066.042-.075.05-.065.04-.075.042-.066.041-.075.05-.065.041-.075.042-.066h1.696v6.025h-1.597zm-7.11 0-.033-.075-.025-.074-.033-.075-.034-.083-.024-.073-.066-.15-.025-.074-.066-.149-.025-.075-.033-.082-.033-.075-.025-.074-.034-.075h-2.374l-.033.075-.025.074-.033.075-.033.082-.025.075-.066.15-.025.074-.033.074-.033.075-.025.074-.033.082-.033.075-.025.074-.034.075h-1.67l.032-.075.067-.149.032-.083.025-.073.067-.15.033-.074.033-.074.033-.083.033-.075.033-.074.025-.075.033-.074.033-.075.033-.082.034-.075.032-.075.034-.074.033-.074.025-.075.032-.083.067-.149.033-.074.066-.15.033-.082.025-.074.033-.075.033-.074.033-.075.034-.075.033-.082.032-.075.034-.074.025-.075.033-.074.033-.075.033-.082.033-.075.033-.074.033-.075.033-.074.025-.075.033-.074.033-.083.033-.074.033-.075.034-.074.033-.075.032-.074.026-.083.033-.074.033-.075.033-.074.033-.075.033-.074.033-.083.033-.075.025-.074.033-.075.033-.074.033-.075.034-.082.032-.075.067-.149.024-.074.034-.075.033-.083.033-.074.033-.075.066-.149.033-.074.025-.083.067-.149.032-.074h1.531l.033.074.034.075.032.074.034.083.025.074.032.075.1.223.033.083.066.15.025.074.066.149.034.082.032.075.067.149.033.074.025.075.033.083.032.074.034.075.033.074.033.075.033.074.033.083.025.074.033.075.1.223.032.083.034.074.033.075.024.074.034.075.033.074.033.075.033.082.067.15.032.074.025.074.033.075.033.083.1.223.033.075.033.074.025.083.033.074.033.075.033.074.033.075.033.074.033.083.034.075.024.074.067.15.032.074.034.082.033.075.033.074.033.075.025.074.033.075.033.083.066.149.033.074.033.075.033.074.026.082.032.075.033.074.034.075h-1.705zm-5.627-.77-.067.05-.058.042-.066.05-.066.04-.066.05-.067.042-.066.041-.074.041-.075.042-.074.041-.075.033-.074.041-.083.033-.074.033-.083.033-.075.034-.149.05-.074.024-.083.025-.074.025-.083.016-.074.017-.166.033-.083.008-.09.009-.083.008-.091.008-.083.008-.091.009h-.356l-.083-.009-.09-.008-.25-.025-.165-.033-.074-.016-.083-.017-.074-.025-.083-.016-.075-.025-.074-.033-.074-.025-.083-.033-.075-.033-.074-.033-.074-.034-.075-.04-.066-.042-.075-.041-.132-.083-.066-.05-.133-.099-.058-.05-.057-.05-.059-.057-.057-.05-.058-.058-.058-.058-.05-.058-.05-.066-.05-.058-.04-.066-.05-.066-.042-.066-.04-.067-.042-.074-.042-.066-.033-.075-.033-.075-.033-.074-.033-.074-.025-.067-.033-.074-.017-.075-.024-.074-.017-.083-.025-.074-.016-.083-.009-.075-.016-.082-.009-.075-.008-.083-.008-.083-.008-.082v-.273l.008-.091v-.083l.008-.083.008-.091.017-.082.008-.083.017-.075.025-.082.017-.083.024-.075.025-.082.025-.075.033-.083.033-.074.033-.075.033-.074.033-.075.042-.074.041-.066.041-.067.042-.066.041-.066.05-.066.05-.066.049-.067.05-.058.058-.057.05-.059.115-.115.058-.05.066-.058.058-.05.066-.05.067-.04.066-.05.066-.042.066-.041.075-.041.074-.042.075-.041.074-.033.075-.033.082-.042.066-.025.083-.024.075-.034.074-.016.074-.025.084-.017.074-.024.082-.017.083-.008.083-.017.331-.033h.356l.182.017h.083l.082.008.091.017.075.008.083.016.082.017.075.016.149.034.075.024.074.017.066.025.075.025.148.066.075.033.075.041.074.034.066.04.075.042.066.041.075.042.066.05.066.041.066.05.066.05.067.057.066.05-.05.066-.058.058-.05.066-.058.066-.05.067-.049.058-.058.066-.05.066-.05.058-.057.066-.05.067-.058.066-.05.058-.049.066-.058.066-.05.066-.058.058-.049.066-.067-.05-.066-.057-.066-.041-.066-.05-.066-.042-.133-.082-.074-.042-.066-.033-.066-.033-.067-.025-.148-.05-.075-.016-.083-.017-.082-.016-.083-.008-.091-.009-.091-.008h-.174l-.083.008-.075.009-.082.016-.075.017-.074.024-.075.025-.148.067-.067.04-.066.042-.066.042-.058.05-.058.05-.058.049-.05.058-.057.058-.05.066-.041.058-.042.066-.04.075-.042.066-.034.074-.025.075-.032.074-.025.083-.017.082-.017.075-.016.09-.008.084-.008.082v.19l.008.084.008.074.008.083.05.223.025.075.024.066.034.083.033.074.04.075.084.132.05.066.05.058.057.058.05.058.058.05.066.05.066.05.066.04.067.042.148.066.075.033.165.05.166.033.083.008.09.009h.19l.183-.017.083-.008.082-.017.084-.016.082-.025.074-.017.075-.033.066-.033.075-.033.058-.033.066-.042v-.753h-1.208v-1.208h2.73v2.69l-.057.05zm12.45-10.114h3.046V20.91h-3.046v19.938zM87.94 20.91h4.782c2.477 0 3.7 1.225 3.7 3.703v5.298c0 2.478-1.223 3.702-3.7 3.702h-1.736v7.235H87.94V20.91zm-1.116 37.965h17.434l-8.899 2.923-8.535-2.923z" clip-rule="evenodd"/></svg>