<svg xmlns="http://www.w3.org/2000/svg" viewBox="0 0 82 24">
  <path d="M7.961 4.8L3.981 7.2V2.4L7.961 0Z" fill="#624DE3"></path>
  <path d="M15.922 9.6V4.8L19.903 2.4V7.2Z" fill="#AB9FF4"></path>
  <path d="M7.961 4.8V0L11.942 2.4V7.2Z" fill="#AB9FF4"></path>
  <path d="M19.903 2.4L15.922 4.8L11.942 2.4L15.922 0Z" fill="#624DE3"></path>
  <path d="M15.922 24V19.2L11.942 16.8V21.6Z" fill="#AB9FF4"></path>
  <path d="M3.981 16.8V12L0 9.6V14.4Z" fill="#624DE3"></path>
  <path d="M15.922 24V19.2L19.903 16.8V21.6Z" fill="#624DE3"></path>
  <path d="M7.961 9.6L3.981 12L0 9.6L3.981 7.2Z" fill="#AB9FF4"></path>
  <path d="M11.942 21.6L7.961 24L3.981 21.6L7.961 19.2Z" fill="#624DE3"></path>
  <path d="M23.883 14.4L19.903 16.8L15.922 14.4L19.903 12Z" fill="#AB9FF4"></path>
  <path d="M7.961 19.2L3.981 21.6V16.8L7.961 14.4Z" fill="#AB9FF4"></path>
  <path d="M15.922 14.4L11.942 16.8L7.961 14.4L11.942 12Z" fill="#624DE3"></path>
  <path d="M19.903 12V7.2L23.883 9.6V14.4Z" fill="#624DE3"></path>
  <path d="M11.942 12L7.961 14.4V9.6L11.942 7.2Z" fill="#8D7CF6"></path>
  <path d="M11.942 12V7.2L15.922 9.6V14.4Z" fill="#AB9FF4"></path>
</svg>