<svg xmlns="http://www.w3.org/2000/svg" width="479" height="476" fill="none"><mask id="a" width="467" height="468" x="6" y="3" maskUnits="userSpaceOnUse" style="mask-type:luminance"><path fill="#fff" d="M472.715 227.667c5.224 128.669-94.848 237.212-223.519 242.436-128.669 5.226-237.212-94.848-242.437-223.519C1.535 117.915 101.607 9.372 230.277 4.148c128.67-5.225 237.214 94.848 242.438 223.519z"/></mask><g mask="url(#a)"><path fill="url(#b)" d="M472.715 227.667c5.224 128.669-94.848 237.212-223.519 242.436-128.669 5.226-237.212-94.848-242.437-223.519C1.535 117.915 101.607 9.372 230.277 4.148c128.67-5.225 237.214 94.848 242.438 223.519z"/></g><mask id="c" width="363" height="363" x="58" y="56" maskUnits="userSpaceOnUse" style="mask-type:luminance"><path fill="#fff" d="M420.676 237.127c0 99.93-81.009 180.939-180.939 180.939-99.93 0-180.94-81.009-180.94-180.939 0-99.931 81.01-180.94 180.94-180.94 99.93 0 180.939 81.009 180.939 180.94z"/></mask><g mask="url(#c)"><path fill="url(#d)" d="M420.676 237.127c0 99.93-81.009 180.939-180.939 180.939-99.93 0-180.94-81.009-180.94-180.939 0-99.931 81.01-180.94 180.94-180.94 99.93 0 180.939 81.009 180.939 180.94z"/></g><path fill="#fff" d="M250.165 445.008a2.63 2.63 0 0 0-.209-.994 1.909 1.909 0 0 0-.625-.78c-.289-.228-.688-.442-1.198-.641a16.479 16.479 0 0 0-1.908-.595 17.477 17.477 0 0 1-2.19-.72 7.557 7.557 0 0 1-1.685-.958 3.99 3.99 0 0 1-1.096-1.266c-.26-.481-.399-1.036-.419-1.665a3.922 3.922 0 0 1 .334-1.755 4.08 4.08 0 0 1 1.066-1.423 5.377 5.377 0 0 1 1.714-.987c.666-.243 1.414-.378 2.243-.404 1.214-.038 2.25.163 3.108.602.866.432 1.532 1.015 2 1.749.467.726.714 1.511.741 2.354l-2.132.068c-.019-.607-.165-1.14-.439-1.598-.274-.465-.678-.823-1.212-1.073-.534-.257-1.204-.373-2.011-.348-.762.024-1.388.159-1.876.404-.489.245-.849.567-1.081.967-.225.4-.329.851-.313 1.355.011.34.091.649.24.925.157.27.39.518.701.745.319.227.718.433 1.198.618.487.185 1.067.359 1.739.523.926.23 1.727.494 2.403.791.676.298 1.235.639 1.677 1.025.449.379.785.817 1.008 1.313.23.489.355 1.049.375 1.678a3.952 3.952 0 0 1-.344 1.8 3.88 3.88 0 0 1-1.1 1.401c-.484.393-1.071.704-1.76.933-.682.222-1.448.346-2.3.373a8.009 8.009 0 0 1-2.219-.242 6.567 6.567 0 0 1-1.994-.87 4.879 4.879 0 0 1-1.458-1.488c-.367-.603-.563-1.308-.589-2.115l2.132-.067c.017.555.139 1.029.367 1.422.227.385.529.702.907.949.386.247.818.426 1.295.537.485.104.986.147 1.505.131.747-.024 1.377-.147 1.888-.371.512-.223.895-.532 1.149-.925.262-.393.384-.853.368-1.378zm17.077-6.02.104 1.016c.123 1.208.083 2.306-.122 3.295-.204.988-.556 1.847-1.055 2.575a5.693 5.693 0 0 1-1.887 1.744c-.753.434-1.618.701-2.598.801-.951.097-1.841.009-2.673-.263a5.93 5.93 0 0 1-2.212-1.327c-.643-.612-1.172-1.38-1.586-2.306-.414-.925-.683-1.992-.806-3.2l-.104-1.016c-.123-1.208-.078-2.303.134-3.285.219-.99.582-1.85 1.088-2.578a5.75 5.75 0 0 1 1.887-1.756c.759-.435 1.614-.7 2.564-.797.98-.1 1.882-.013 2.706.26a5.619 5.619 0 0 1 2.202 1.338c.643.612 1.165 1.381 1.564 2.308.406.919.671 1.982.794 3.191zm-2.007 1.231-.105-1.038c-.098-.958-.284-1.795-.558-2.511-.266-.718-.613-1.307-1.04-1.77a3.685 3.685 0 0 0-1.497-.997c-.564-.203-1.189-.27-1.874-.2a4.152 4.152 0 0 0-1.762.57 3.835 3.835 0 0 0-1.254 1.278c-.324.539-.552 1.188-.683 1.945-.132.758-.148 1.616-.051 2.573l.106 1.039c.099.965.289 1.809.571 2.532.281.716.639 1.308 1.074 1.777.442.462.941.794 1.498.998.564.203 1.177.27 1.84.203.693-.071 1.295-.262 1.806-.575a3.624 3.624 0 0 0 1.243-1.277c.324-.546.544-1.198.661-1.954.115-.763.124-1.628.025-2.593zm15.111.022 2.099-.373c.07 1.026-.059 1.977-.384 2.855-.326.877-.874 1.625-1.644 2.243-.772.61-1.795 1.029-3.071 1.255-.934.166-1.814.141-2.642-.073a5.742 5.742 0 0 1-2.221-1.14c-.662-.552-1.223-1.253-1.682-2.104-.453-.86-.779-1.847-.977-2.963l-.281-1.586c-.198-1.115-.231-2.151-.1-3.106.137-.965.425-1.821.864-2.568a5.808 5.808 0 0 1 1.758-1.857c.725-.49 1.58-.822 2.564-.996 1.203-.214 2.26-.168 3.172.136a4.935 4.935 0 0 1 2.269 1.538c.608.712 1.059 1.583 1.355 2.614l-2.1.372c-.234-.726-.537-1.33-.908-1.813a3.005 3.005 0 0 0-1.402-1.037c-.562-.201-1.255-.229-2.079-.083-.708.126-1.307.371-1.799.737a3.826 3.826 0 0 0-1.141 1.387c-.269.559-.434 1.201-.493 1.926-.06.725-.014 1.51.136 2.356l.285 1.608c.138.78.349 1.498.631 2.155a5.929 5.929 0 0 0 1.074 1.671c.428.458.927.791 1.497.998.57.199 1.208.237 1.915.111.897-.159 1.586-.428 2.068-.807.482-.378.81-.858.986-1.438.182-.581.266-1.254.251-2.018zm14.529 1.845-1.987.524-3.39-12.844c-.221-.838-.257-1.583-.107-2.235.155-.661.48-1.214.975-1.659.493-.452 1.134-.781 1.921-.989a5.649 5.649 0 0 1 1.42-.191l.321 1.65c-.16.004-.338.024-.535.061-.19.034-.378.076-.564.125-.423.112-.765.294-1.028.547a1.672 1.672 0 0 0-.494.912c-.073.364-.047.782.078 1.254l3.39 12.845zm-.597-12.272.403 1.525-6.294 1.661-.402-1.525 6.293-1.661zm3.001 5.571-.077-.243a7.417 7.417 0 0 1-.371-2.411 5.737 5.737 0 0 1 .447-2.183c.283-.673.7-1.256 1.25-1.749.548-.501 1.22-.878 2.018-1.132.804-.256 1.574-.338 2.311-.246a4.83 4.83 0 0 1 2.042.702c.625.376 1.17.882 1.637 1.519a7.45 7.45 0 0 1 1.091 2.182l.077.243c.263.826.387 1.63.371 2.412a5.76 5.76 0 0 1-.458 2.185 5.032 5.032 0 0 1-1.25 1.75c-.543.492-1.216.865-2.021 1.121-.804.256-1.573.342-2.307.257a5.153 5.153 0 0 1-2.042-.702 5.877 5.877 0 0 1-1.627-1.522 7.469 7.469 0 0 1-1.091-2.183zm1.881-.866.077.243a6.64 6.64 0 0 0 .717 1.556 4.48 4.48 0 0 0 1.027 1.141c.399.301.839.499 1.32.594.479.089.99.046 1.533-.127.537-.17.971-.429 1.304-.776.337-.356.578-.77.723-1.244a4.47 4.47 0 0 0 .178-1.525 6.293 6.293 0 0 0-.303-1.687l-.078-.244a6.157 6.157 0 0 0-.72-1.53 4.303 4.303 0 0 0-1.042-1.149 3.052 3.052 0 0 0-1.312-.608c-.474-.098-.983-.06-1.526.113-.537.17-.973.434-1.311.79a3.19 3.19 0 0 0-.719 1.254 4.471 4.471 0 0 0-.176 1.537c.026.543.128 1.097.308 1.662zm11.308-8.053 3.556 9.485-1.924.721-4.219-11.253 1.872-.701.715 1.748zm2.829-3.148.66 1.792a3.031 3.031 0 0 0-.481.11 5.274 5.274 0 0 0-.486.158c-.444.167-.81.383-1.097.649a2.595 2.595 0 0 0-.645.906 3 3 0 0 0-.227 1.105c-.004.389.05.796.162 1.22l-.424.515a9.453 9.453 0 0 1-.52-1.987 5.552 5.552 0 0 1 .042-1.819 3.31 3.31 0 0 1 .676-1.487c.345-.43.822-.759 1.432-.988.139-.052.305-.095.498-.127.191-.04.328-.056.41-.047zm18.031.764a2.604 2.604 0 0 0-.585-.829 1.902 1.902 0 0 0-.883-.47c-.355-.095-.806-.133-1.353-.114-.541.016-1.203.085-1.988.208-.825.124-1.59.193-2.296.204a7.533 7.533 0 0 1-1.927-.213 3.98 3.98 0 0 1-1.507-.729c-.429-.339-.777-.793-1.044-1.363a3.942 3.942 0 0 1-.388-1.744 4.088 4.088 0 0 1 .417-1.728 5.377 5.377 0 0 1 1.183-1.585c.516-.487 1.15-.907 1.901-1.259 1.099-.515 2.13-.74 3.093-.676.966.054 1.808.326 2.528.815a4.545 4.545 0 0 1 1.612 1.869l-1.931.905c-.258-.55-.603-.981-1.036-1.293-.435-.319-.948-.488-1.537-.506-.592-.026-1.254.133-1.985.476-.69.323-1.212.694-1.563 1.113-.352.418-.556.857-.61 1.316-.048.456.034.911.248 1.367.145.309.34.561.587.756.25.185.563.32.939.406a5.4 5.4 0 0 0 1.344.094c.52-.023 1.122-.092 1.804-.207.941-.155 1.781-.23 2.52-.224.738.005 1.387.098 1.945.278a3.69 3.69 0 0 1 1.446.807c.405.358.741.822 1.008 1.392.279.597.411 1.193.396 1.789a3.882 3.882 0 0 1-.456 1.722c-.289.553-.705 1.071-1.247 1.554-.539.473-1.194.89-1.965 1.252a8.009 8.009 0 0 1-2.133.656 6.59 6.59 0 0 1-2.176-.011 4.882 4.882 0 0 1-1.928-.79c-.576-.408-1.035-.978-1.378-1.709l1.931-.905c.236.503.536.89.9 1.161.361.264.764.435 1.209.513a4.11 4.11 0 0 0 1.402-.019 6.247 6.247 0 0 0 1.433-.476c.677-.317 1.207-.679 1.588-1.087.382-.408.611-.842.689-1.304.085-.465.016-.936-.207-1.412zm10.709-.753c-.735.401-1.468.641-2.201.721a5.167 5.167 0 0 1-2.111-.226 5.38 5.38 0 0 1-1.858-1.086 6.74 6.74 0 0 1-1.46-1.86l-.224-.409c-.468-.858-.759-1.691-.871-2.499-.116-.814-.084-1.574.096-2.28.18-.705.48-1.329.901-1.872a4.867 4.867 0 0 1 1.518-1.298c.754-.411 1.475-.636 2.163-.675a4.039 4.039 0 0 1 1.951.352c.603.269 1.161.673 1.674 1.211a8.91 8.91 0 0 1 1.372 1.908l.442.809-7.875 4.304-.804-1.472 6.072-3.318-.075-.137a5.094 5.094 0 0 0-1.038-1.204 2.79 2.79 0 0 0-1.376-.666c-.514-.091-1.079.033-1.696.37a2.787 2.787 0 0 0-1.459 2.126c-.062.473-.028.99.102 1.552s.368 1.161.716 1.798l.224.409a5.4 5.4 0 0 0 .977 1.302c.381.357.795.629 1.242.814.454.183.925.263 1.411.242.493-.024.986-.172 1.48-.441.637-.348 1.105-.773 1.405-1.274a4.58 4.58 0 0 0 .59-1.677l1.566.271c-.04.469-.149.955-.33 1.458-.18.504-.474.994-.881 1.469-.4.472-.948.898-1.643 1.278zm2.617-13.479 5.276 8.647-1.754 1.07-6.26-10.258 1.707-1.042 1.031 1.583zm2.186-3.624.986 1.637a2.985 2.985 0 0 0-.452.197 5.542 5.542 0 0 0-.448.247 3.293 3.293 0 0 0-.955.844 2.588 2.588 0 0 0-.463 1.011 3.004 3.004 0 0 0-.015 1.128c.069.383.198.772.388 1.168l-.32.586a9.495 9.495 0 0 1-.884-1.855 5.56 5.56 0 0 1-.301-1.794 3.326 3.326 0 0 1 .384-1.588c.258-.487.665-.9 1.222-1.239.126-.077.281-.15.465-.219.18-.075.311-.116.393-.123zm10.32 5.436-2.967-10.262 1.739-1.175 3.15 12.376-1.141.771-.781-1.71zm-7.964-6.884 8.529 6.569 1.201 1.36-1.141.771-10.337-7.519 1.748-1.181zm9.915-6.95 7.115 9.686-1.665 1.223-7.115-9.686 1.665-1.223zm-3.677-1.254a1.241 1.241 0 0 1-.258-.858c.031-.307.208-.58.53-.816.317-.233.626-.318.929-.255.309.058.562.221.759.489.189.257.265.541.227.853-.035.302-.211.569-.527.802-.323.236-.633.326-.932.27a1.206 1.206 0 0 1-.728-.485zm16.228 4.882c.382-.305.672-.666.871-1.081.199-.415.294-.842.285-1.28a2.293 2.293 0 0 0-.401-1.23l1.527-1.221c.415.578.641 1.246.678 2.004a4.934 4.934 0 0 1-.422 2.229 4.997 4.997 0 0 1-1.483 1.897c-.706.565-1.421.933-2.146 1.105a4.687 4.687 0 0 1-2.12.017 5.86 5.86 0 0 1-1.965-.874 8.056 8.056 0 0 1-1.688-1.595l-.291-.364a7.95 7.95 0 0 1-1.178-1.988 5.856 5.856 0 0 1-.428-2.118c0-.711.161-1.399.482-2.064.328-.67.844-1.286 1.55-1.851.734-.587 1.496-.95 2.286-1.089a4.245 4.245 0 0 1 2.264.181c.725.254 1.361.694 1.908 1.318l-1.527 1.221a2.966 2.966 0 0 0-1.169-.786 2.634 2.634 0 0 0-1.36-.135c-.471.064-.92.266-1.348.609-.491.393-.826.822-1.004 1.287a2.783 2.783 0 0 0-.165 1.412c.068.476.218.949.451 1.417.233.458.514.892.843 1.303l.291.364a7.75 7.75 0 0 0 1.093 1.117c.4.334.825.587 1.275.758.455.167.926.217 1.413.15.488-.078.981-.315 1.478-.713zm10.484-6.722c-.622.559-1.281.961-1.976 1.207a5.151 5.151 0 0 1-2.106.265 5.392 5.392 0 0 1-2.058-.629 6.768 6.768 0 0 1-1.848-1.476l-.312-.347c-.653-.727-1.127-1.47-1.422-2.231-.3-.766-.444-1.513-.431-2.241a5.053 5.053 0 0 1 .447-2.029 4.86 4.86 0 0 1 1.179-1.612c.639-.574 1.289-.958 1.95-1.154a4.046 4.046 0 0 1 1.98-.106 5.326 5.326 0 0 1 1.908.794c.618.4 1.209.914 1.773 1.542l.616.686-6.676 5.998-1.12-1.248 5.147-4.624-.104-.116a5.11 5.11 0 0 0-1.287-.934 2.793 2.793 0 0 0-1.492-.332c-.521.03-1.043.28-1.566.75a2.795 2.795 0 0 0-.931 2.404c.048.475.2.97.455 1.488.255.517.626 1.045 1.111 1.585l.311.347c.381.424.798.771 1.25 1.042.453.26.918.429 1.397.507.483.073.96.044 1.428-.088.474-.138.92-.394 1.339-.77.54-.485.898-1.006 1.075-1.563a4.589 4.589 0 0 0 .189-1.767l1.586-.096c.069.465.074.963.014 1.495a4.713 4.713 0 0 1-.52 1.631c-.281.552-.716 1.092-1.306 1.622zm11.686-24.379.751.693c.892.824 1.588 1.674 2.09 2.55.501.877.805 1.753.914 2.629a5.694 5.694 0 0 1-.26 2.557c-.277.823-.749 1.596-1.418 2.32-.648.701-1.374 1.225-2.177 1.572a5.925 5.925 0 0 1-2.536.47c-.887-.033-1.792-.259-2.715-.678-.923-.42-1.831-1.041-2.723-1.865l-.751-.694c-.892-.824-1.583-1.674-2.074-2.55-.491-.887-.788-1.772-.891-2.653a5.746 5.746 0 0 1 .252-2.565c.281-.828.746-1.593 1.394-2.295.668-.724 1.402-1.256 2.201-1.597a5.637 5.637 0 0 1 2.536-.454c.887.033 1.787.264 2.7.695.913.419 1.815 1.041 2.707 1.865zm-.689 2.252-.767-.709c-.707-.653-1.4-1.157-2.08-1.513-.674-.361-1.325-.573-1.951-.637a3.686 3.686 0 0 0-1.782.243c-.557.221-1.069.585-1.537 1.091a4.126 4.126 0 0 0-.942 1.594 3.832 3.832 0 0 0-.095 1.788c.114.619.373 1.255.776 1.91s.958 1.309 1.665 1.962l.767.708c.713.659 1.414 1.165 2.104 1.52.685.35 1.346.557 1.982.621a3.937 3.937 0 0 0 1.783-.244 4.133 4.133 0 0 0 1.514-1.066c.472-.511.796-1.053.972-1.626a3.612 3.612 0 0 0 .087-1.78c-.119-.624-.385-1.258-.799-1.902-.418-.649-.984-1.302-1.697-1.96zm2.436-6.858 7.815 6.445-1.307 1.585-9.272-7.646 1.272-1.542 1.492 1.158zm.88-4.14 1.467 1.224a3.02 3.02 0 0 0-.362.335 4.95 4.95 0 0 0-.342.38c-.302.366-.511.735-.627 1.11a2.602 2.602 0 0 0-.107 1.107c.046.363.164.72.355 1.07.191.339.44.665.749.977l-.11.658a9.467 9.467 0 0 1-1.443-1.463 5.562 5.562 0 0 1-.871-1.597 3.305 3.305 0 0 1-.156-1.626c.084-.545.334-1.068.748-1.571.094-.114.217-.234.368-.359.145-.13.256-.211.331-.245zm5.645-7.345 1.116-1.495 9.427 7.034c.849.633 1.445 1.345 1.787 2.137a4.19 4.19 0 0 1 .286 2.458c-.141.846-.511 1.67-1.109 2.471-.248.332-.593.684-1.037 1.055-.433.37-.935.679-1.508.926a4.104 4.104 0 0 1-1.792.34l-.335-1.594c.788-.041 1.441-.21 1.958-.507a4.175 4.175 0 0 0 1.268-1.105c.39-.523.628-1.047.716-1.573a2.56 2.56 0 0 0-.215-1.532c-.22-.497-.61-.953-1.167-1.37l-7.389-5.513-2.006-1.732zm-.025 10.306-.187-.14c-.736-.549-1.34-1.133-1.811-1.753-.472-.629-.803-1.269-.993-1.919a4.23 4.23 0 0 1-.1-1.945c.112-.646.387-1.263.826-1.851.451-.605.952-1.053 1.502-1.345a3.803 3.803 0 0 1 1.781-.473c.637-.024 1.305.082 2.007.319.701.237 1.434.585 2.199 1.045l.819.611a10.496 10.496 0 0 1 1.62 1.804c.426.605.719 1.216.877 1.833.163.611.181 1.225.054 1.842-.134.612-.428 1.223-.884 1.834-.43.576-.941 1.008-1.534 1.295a4.465 4.465 0 0 1-1.914.429 6.035 6.035 0 0 1-2.12-.39 8.784 8.784 0 0 1-2.142-1.196zm1.041-1.787.187.14c.481.358.968.647 1.46.867.496.213.98.339 1.451.376.476.031.925-.045 1.348-.228.417-.187.792-.504 1.124-.949.407-.546.628-1.083.662-1.612a3.125 3.125 0 0 0-.286-1.53 6.577 6.577 0 0 0-.865-1.422l-2.145-1.6a5.468 5.468 0 0 0-1.17-.402 3.656 3.656 0 0 0-1.204-.095 2.808 2.808 0 0 0-1.157.343c-.372.203-.714.511-1.024.927-.336.451-.531.911-.585 1.379-.055.457.003.912.175 1.363.169.441.43.871.783 1.291.35.409.766.793 1.246 1.152zm13.871-12.713-5.174-3.393c-.396-.26-.792-.404-1.189-.434a1.89 1.89 0 0 0-1.15.255c-.368.21-.704.547-1.009 1.012-.284.433-.46.863-.526 1.288-.063.42-.034.802.085 1.146.124.338.325.598.604.781l-1.127 1.718a2.714 2.714 0 0 1-.885-.979 3.732 3.732 0 0 1-.433-1.426 4.757 4.757 0 0 1 .141-1.714c.151-.609.426-1.217.824-1.824.479-.731 1.025-1.293 1.638-1.688a3.466 3.466 0 0 1 1.989-.582c.707.003 1.435.25 2.184.741l4.681 3.07c.334.219.709.425 1.123.617.418.186.802.309 1.152.37l.148.098-1.175 1.792c-.255-.043-.563-.147-.924-.313a7.682 7.682 0 0 1-.977-.535zm-4.18-3.166 1.22.773-1.139 1.737a7.628 7.628 0 0 0-.738 1.389c-.178.432-.274.83-.29 1.191-.016.362.049.688.195.978.14.287.365.532.674.735.316.207.651.324 1.004.352.354.029.701-.049 1.043-.232.339-.194.647-.501.923-.922.345-.527.538-1.064.579-1.613.041-.548-.022-1.046-.19-1.492-.163-.453-.391-.788-.682-1.006l1.308-.191c.232.214.442.52.632.919s.325.855.405 1.368a4.978 4.978 0 0 1-.028 1.602c-.099.555-.326 1.105-.684 1.65-.446.681-.971 1.192-1.575 1.531a3.66 3.66 0 0 1-1.847.488 3.383 3.383 0 0 1-1.789-.575c-.538-.353-.943-.769-1.213-1.247a3.288 3.288 0 0 1-.435-1.587c-.018-.579.084-1.193.307-1.844.223-.651.56-1.32 1.011-2.007l1.309-1.997zm1.715-6.958 8.204 4.695-1.021 1.783-10.43-5.968.965-1.688 2.282 1.178zm2.351 1.909-.454.725a7.186 7.186 0 0 1-1.794-1.449 5.66 5.66 0 0 1-1.094-1.778 4.446 4.446 0 0 1-.28-1.926 4.518 4.518 0 0 1 .611-1.94c.294-.515.63-.937 1.007-1.267.37-.334.789-.56 1.257-.676.471-.123.992-.123 1.562-.002.564.118 1.189.374 1.877.767l6.835 3.912-1.026 1.793-6.854-3.923c-.547-.312-1.03-.482-1.449-.509a1.71 1.71 0 0 0-1.126.29c-.331.22-.625.555-.882 1.005a3.04 3.04 0 0 0-.416 1.375c-.019.467.059.925.236 1.376.181.445.441.863.781 1.253.336.381.739.705 1.209.974zm1.42-14.147 10.678 5.513-.947 1.836-10.679-5.513.948-1.836zm-3.852.512a1.24 1.24 0 0 1-.612-.654c-.109-.29-.072-.612.112-.967.18-.349.419-.563.718-.642.303-.085.602-.052.898.101.283.146.477.367.583.664.102.286.063.603-.117.952-.183.355-.421.574-.714.656a1.207 1.207 0 0 1-.868-.11zm18.243-6.661 1.529.715-3.698 7.92-1.529-.714 3.698-7.921zm-8.178-3.462 6.207 11.674-.531 1.138-1.369-.639-6.18-11.601.555-1.188 1.318.616zm-1.703.209 1.539.719-3.472 7.438-1.54-.719 3.473-7.438zm13.144-5.761-5.747-2.292c-.44-.175-.858-.238-1.252-.188-.399.04-.758.2-1.076.48-.319.279-.581.677-.787 1.193-.192.481-.278.937-.258 1.367.022.424.126.792.312 1.105.189.307.438.522.748.645l-.761 1.909a2.709 2.709 0 0 1-1.063-.783 3.708 3.708 0 0 1-.709-1.311 4.77 4.77 0 0 1-.204-1.707 5.954 5.954 0 0 1 .443-1.952c.324-.812.747-1.472 1.269-1.981a3.455 3.455 0 0 1 1.832-.968c.693-.138 1.456-.041 2.288.291l5.2 2.073a8.85 8.85 0 0 0 1.223.381c.447.098.848.142 1.203.132l.165.066-.794 1.991c-.259.009-.581-.032-.968-.122a7.614 7.614 0 0 1-1.064-.329zm-4.728-2.268 1.349.514-.769 1.929a7.697 7.697 0 0 0-.446 1.509c-.087.459-.103.867-.046 1.225.057.357.186.664.387.919.194.253.463.448.807.585.35.14.702.188 1.054.145.352-.043.677-.188.975-.436.294-.257.534-.62.721-1.087.233-.585.315-1.15.245-1.696-.069-.546-.23-1.021-.484-1.425-.251-.411-.54-.694-.869-.849l1.243-.449c.27.164.538.422.803.775a4.976 4.976 0 0 1 .962 2.835c.015.564-.099 1.148-.34 1.754-.302.756-.714 1.361-1.238 1.814a3.66 3.66 0 0 1-1.713.847 3.374 3.374 0 0 1-1.867-.206c-.598-.239-1.078-.565-1.438-.98a3.278 3.278 0 0 1-.742-1.468c-.134-.564-.157-1.186-.068-1.869.088-.682.285-1.404.589-2.168l.885-2.218zm-1.181-10.823 1.492.513-2.113 6.145-1.491-.513 2.112-6.145zm-4.16 3.116.668-1.943 11.313 3.889c.385.132.696.172.933.121a.903.903 0 0 0 .548-.329c.128-.167.229-.359.304-.577a3.38 3.38 0 0 0 .131-.518c.028-.194.046-.34.057-.439l1.589.535c-.004.171-.028.39-.073.656a4.9 4.9 0 0 1-.233.918 3.211 3.211 0 0 1-.735 1.216c-.326.334-.751.544-1.274.631-.527.077-1.169-.015-1.926-.275l-11.302-3.885zm5.456-7.291 11.479 3.558-.612 1.974-11.479-3.559.612-1.973zm-3.702 1.178a1.24 1.24 0 0 1-.718-.536c-.158-.266-.177-.59-.059-.972.116-.375.315-.627.595-.757.283-.138.584-.157.902-.058.304.094.534.278.69.551.15.264.168.583.051.958-.118.382-.314.639-.588.771a1.209 1.209 0 0 1-.873.043zm10.323-1.665-.247-.065a7.442 7.442 0 0 1-2.236-.977 5.725 5.725 0 0 1-1.604-1.546 4.87 4.87 0 0 1-.809-1.992c-.13-.73-.089-1.5.124-2.31.214-.816.557-1.511 1.028-2.084a4.845 4.845 0 0 1 1.686-1.349 5.605 5.605 0 0 1 2.159-.57 7.43 7.43 0 0 1 2.428.246l.247.064a7.45 7.45 0 0 1 2.235.977 5.772 5.772 0 0 1 1.601 1.557c.41.597.68 1.261.81 1.992.125.722.08 1.491-.134 2.307-.215.817-.554 1.513-1.019 2.087a5.133 5.133 0 0 1-1.685 1.349 5.856 5.856 0 0 1-2.157.56 7.426 7.426 0 0 1-2.427-.246zm.274-2.052.247.064a6.6 6.6 0 0 0 1.698.227 4.45 4.45 0 0 0 1.514-.257c.467-.176.87-.442 1.208-.797.331-.357.569-.811.714-1.363.142-.544.156-1.05.041-1.516a3.095 3.095 0 0 0-.664-1.277 4.461 4.461 0 0 0-1.193-.967 6.297 6.297 0 0 0-1.587-.646l-.248-.065a6.202 6.202 0 0 0-1.678-.211 4.32 4.32 0 0 0-1.528.266 3.06 3.06 0 0 0-1.216.783c-.336.348-.577.798-.721 1.35-.143.544-.154 1.054-.034 1.529.122.469.347.895.675 1.28.322.375.724.699 1.204.97.472.269.995.479 1.568.63zm-.073-13.715 9.274 1.822-.396 2.017-11.792-2.317.375-1.908 2.539.386zm2.837 1.056-.198.832a7.222 7.222 0 0 1-2.163-.798 5.67 5.67 0 0 1-1.606-1.335 4.458 4.458 0 0 1-.923-3.769 4.897 4.897 0 0 1 .548-1.522c.244-.435.569-.783.975-1.043.407-.267.9-.434 1.479-.501.572-.069 1.247-.027 2.024.126l7.727 1.518-.398 2.027-7.749-1.523c-.617-.121-1.129-.127-1.536-.018a1.703 1.703 0 0 0-.973.635c-.243.314-.415.726-.514 1.234-.099.502-.084.98.046 1.436.131.448.352.857.664 1.228.313.364.693.676 1.14.937.441.253.927.431 1.457.536zm6.209-17.355a1.733 1.733 0 0 0-.842.088c-.273.09-.54.319-.799.687-.266.36-.529.922-.789 1.686-.23.642-.476 1.218-.739 1.727a5.497 5.497 0 0 1-.877 1.26c-.322.33-.679.569-1.073.717-.394.149-.836.19-1.328.123-.47-.064-.9-.227-1.29-.489a3.632 3.632 0 0 1-.991-1.042 4.382 4.382 0 0 1-.569-1.501 5.688 5.688 0 0 1-.029-1.854c.13-.954.409-1.745.838-2.374.429-.63.951-1.086 1.564-1.368a3.39 3.39 0 0 1 1.934-.287l-.277 2.036a1.764 1.764 0 0 0-.998.167c-.341.148-.64.395-.896.741-.255.339-.419.777-.492 1.312-.077.565-.051 1.036.077 1.412.122.368.305.65.547.848.243.189.511.304.805.344.22.03.423.02.609-.029.18-.058.357-.176.53-.354.166-.179.336-.44.51-.783.173-.342.36-.784.561-1.325.352-.946.726-1.713 1.119-2.303.394-.589.836-1.007 1.325-1.255.49-.247 1.054-.327 1.692-.241a3.198 3.198 0 0 1 2.382 1.613c.253.445.429.962.529 1.551.093.58.092 1.219-.003 1.916-.142 1.05-.45 1.912-.922 2.588-.473.675-1.032 1.16-1.677 1.453a3.5 3.5 0 0 1-1.958.306l.277-2.047c.562.046 1.028-.055 1.398-.303.363-.25.642-.578.84-.985.189-.408.313-.821.37-1.239.075-.557.065-1.033-.031-1.427-.095-.402-.257-.719-.487-.952a1.417 1.417 0 0 0-.84-.417zM142.522 134.535l-23.99 66.047h-9.805l27.623-72.468h6.321l-.149 6.421zm20.107 66.047-24.039-66.047-.15-6.421h6.321l27.723 72.468h-9.855zm-1.244-26.827v7.864h-40.713v-7.864h40.713zm31.107-45.641v72.468h-9.605v-72.468h9.605zm61.22 49.424h9.556c-.498 4.579-1.809 8.677-3.932 12.293-2.124 3.617-5.127 6.487-9.009 8.611-3.882 2.09-8.727 3.135-14.533 3.135-4.247 0-8.113-.796-11.597-2.389-3.451-1.592-6.421-3.849-8.909-6.769-2.489-2.953-4.413-6.486-5.774-10.601-1.327-4.148-1.991-8.76-1.991-13.836v-7.217c0-5.077.664-9.673 1.991-13.787 1.361-4.148 3.302-7.698 5.824-10.651a25.987 25.987 0 0 1 9.207-6.819c3.584-1.593 7.615-2.389 12.095-2.389 5.475 0 10.104 1.029 13.886 3.086 3.783 2.057 6.719 4.911 8.81 8.561 2.123 3.616 3.434 7.814 3.932 12.592h-9.556c-.465-3.385-1.328-6.288-2.589-8.71-1.26-2.456-3.052-4.347-5.375-5.674s-5.359-1.991-9.108-1.991c-3.219 0-6.056.614-8.511 1.842-2.422 1.227-4.463 2.969-6.122 5.226-1.626 2.256-2.854 4.96-3.683 8.112-.83 3.153-1.244 6.653-1.244 10.502v7.317c0 3.55.365 6.885 1.095 10.004.763 3.119 1.908 5.856 3.434 8.212 1.526 2.356 3.467 4.214 5.823 5.574 2.356 1.328 5.143 1.991 8.362 1.991 4.081 0 7.333-.647 9.755-1.941 2.422-1.294 4.247-3.152 5.475-5.574 1.261-2.422 2.157-5.326 2.688-8.71zm49.373-5.376h-19.361v-7.814h19.361c3.75 0 6.786-.597 9.108-1.792 2.323-1.194 4.015-2.853 5.077-4.977 1.095-2.123 1.643-4.546 1.643-7.266 0-2.489-.548-4.828-1.643-7.018-1.062-2.19-2.754-3.949-5.077-5.276-2.322-1.36-5.358-2.041-9.108-2.041h-17.121v64.604h-9.606v-72.468h26.727c5.475 0 10.104.946 13.886 2.837 3.783 1.892 6.653 4.513 8.611 7.864 1.958 3.318 2.936 7.118 2.936 11.398 0 4.645-.978 8.611-2.936 11.896-1.958 3.284-4.828 5.79-8.611 7.515-3.782 1.692-8.411 2.538-13.886 2.538zm57.536-37.627-23.99 66.047h-9.805l27.623-72.468h6.321l-.149 6.421zm20.108 66.047-24.04-66.047-.149-6.421h6.321l27.723 72.468h-9.855zm-1.244-26.827v7.864h-40.714v-7.864h40.714zM193.787 299.963c0-1.692-.265-3.185-.796-4.479-.498-1.327-1.394-2.522-2.688-3.584-1.261-1.061-3.019-2.074-5.276-3.036-2.223-.962-5.043-1.941-8.461-2.936-3.583-1.062-6.818-2.24-9.705-3.534-2.887-1.327-5.359-2.837-7.416-4.529-2.057-1.693-3.634-3.634-4.728-5.824-1.095-2.19-1.643-4.695-1.643-7.515 0-2.821.581-5.425 1.742-7.814 1.161-2.389 2.82-4.463 4.977-6.222 2.19-1.792 4.795-3.185 7.814-4.181 3.02-.995 6.388-1.493 10.104-1.493 5.442 0 10.054 1.046 13.837 3.136 3.815 2.057 6.719 4.761 8.71 8.113 1.99 3.318 2.986 6.868 2.986 10.651h-9.556c0-2.721-.581-5.127-1.742-7.217-1.162-2.124-2.92-3.783-5.276-4.977-2.356-1.228-5.342-1.842-8.959-1.842-3.418 0-6.238.515-8.461 1.543-2.223 1.029-3.882 2.422-4.977 4.181-1.062 1.759-1.593 3.766-1.593 6.022 0 1.527.315 2.92.946 4.181.663 1.228 1.675 2.373 3.036 3.434 1.393 1.062 3.152 2.041 5.276 2.937 2.156.896 4.728 1.759 7.714 2.588 4.115 1.161 7.665 2.455 10.651 3.882 2.987 1.427 5.442 3.036 7.366 4.828 1.958 1.759 3.402 3.766 4.331 6.022.962 2.224 1.443 4.745 1.443 7.566 0 2.953-.597 5.624-1.792 8.013-1.194 2.389-2.903 4.43-5.126 6.122-2.223 1.692-4.894 3.003-8.014 3.932-3.085.896-6.536 1.344-10.352 1.344-3.351 0-6.653-.465-9.905-1.394-3.218-.929-6.155-2.323-8.809-4.181-2.621-1.858-4.728-4.147-6.321-6.868-1.56-2.754-2.339-5.94-2.339-9.556h9.556c0 2.488.481 4.628 1.443 6.42a12.75 12.75 0 0 0 3.932 4.38c1.692 1.161 3.6 2.024 5.724 2.588 2.157.531 4.396.797 6.719.797 3.351 0 6.188-.465 8.511-1.394 2.323-.929 4.081-2.256 5.276-3.982 1.227-1.725 1.841-3.766 1.841-6.122zm77.694-20.207v4.579c0 5.442-.68 10.319-2.041 14.633-1.36 4.313-3.318 7.98-5.873 10.999-2.555 3.02-5.624 5.326-9.208 6.919-3.55 1.592-7.532 2.389-11.945 2.389-4.28 0-8.212-.797-11.796-2.389-3.55-1.593-6.636-3.899-9.257-6.919-2.588-3.019-4.596-6.686-6.023-10.999-1.426-4.314-2.14-9.191-2.14-14.633v-4.579c0-5.442.697-10.303 2.091-14.583 1.426-4.314 3.434-7.98 6.022-11 2.588-3.052 5.657-5.375 9.208-6.968 3.583-1.592 7.515-2.389 11.796-2.389 4.413 0 8.394.797 11.945 2.389 3.583 1.593 6.653 3.916 9.208 6.968 2.588 3.02 4.562 6.686 5.922 11 1.394 4.28 2.091 9.141 2.091 14.583zm-9.507 4.579v-4.679c0-4.313-.447-8.129-1.343-11.447-.863-3.318-2.141-6.105-3.833-8.362-1.692-2.256-3.766-3.965-6.221-5.126-2.422-1.161-5.176-1.742-8.262-1.742-2.987 0-5.691.581-8.113 1.742-2.389 1.161-4.446 2.87-6.172 5.126-1.692 2.257-3.003 5.044-3.932 8.362-.929 3.318-1.393 7.134-1.393 11.447v4.679c0 4.347.464 8.196 1.393 11.547.929 3.318 2.257 6.122 3.982 8.411 1.759 2.257 3.832 3.966 6.221 5.127 2.423 1.161 5.127 1.742 8.113 1.742 3.119 0 5.89-.581 8.312-1.742 2.422-1.161 4.463-2.87 6.122-5.127 1.692-2.289 2.97-5.093 3.832-8.411.863-3.351 1.294-7.2 1.294-11.547zm67.64 10.9h9.556c-.497 4.579-1.808 8.677-3.932 12.294-2.123 3.616-5.126 6.487-9.008 8.61-3.882 2.091-8.727 3.136-14.534 3.136-4.247 0-8.112-.797-11.596-2.389a25.777 25.777 0 0 1-8.91-6.769c-2.488-2.953-4.413-6.487-5.773-10.602-1.327-4.147-1.991-8.759-1.991-13.836v-7.217c0-5.077.664-9.672 1.991-13.787 1.36-4.147 3.301-7.698 5.823-10.651a25.982 25.982 0 0 1 9.208-6.819c3.584-1.592 7.615-2.389 12.095-2.389 5.474 0 10.103 1.029 13.886 3.086 3.782 2.057 6.719 4.911 8.809 8.561 2.124 3.617 3.435 7.814 3.932 12.592h-9.556c-.464-3.384-1.327-6.288-2.588-8.71-1.261-2.455-3.053-4.347-5.375-5.674-2.323-1.327-5.359-1.991-9.108-1.991-3.219 0-6.056.614-8.511 1.842-2.423 1.227-4.463 2.969-6.122 5.226-1.626 2.256-2.854 4.96-3.683 8.113-.83 3.152-1.245 6.652-1.245 10.501v7.317c0 3.55.365 6.885 1.095 10.004.763 3.119 1.908 5.856 3.434 8.212 1.527 2.356 3.468 4.214 5.824 5.575 2.356 1.327 5.143 1.991 8.361 1.991 4.082 0 7.333-.647 9.756-1.942 2.422-1.294 4.247-3.152 5.475-5.574 1.26-2.422 2.156-5.326 2.687-8.71z"/><path stroke="#fff" stroke-linecap="round" stroke-linejoin="round" stroke-miterlimit="10" stroke-width="1.242" d="M106.536 232.064h276.221"/><path fill="#fff" d="M151.506 364.337v-7.193c0-.551-.112-1.029-.336-1.433a2.196 2.196 0 0 0-.982-.956c-.439-.224-.981-.336-1.627-.336-.603 0-1.132.104-1.588.31-.448.207-.801.478-1.059.814-.25.336-.375.697-.375 1.085h-2.389c0-.5.129-.995.387-1.486.259-.49.629-.934 1.111-1.33a5.557 5.557 0 0 1 1.756-.955c.689-.241 1.455-.362 2.299-.362 1.016 0 1.911.172 2.686.517a4.02 4.02 0 0 1 1.834 1.562c.448.689.672 1.554.672 2.596v6.509c0 .465.038.96.116 1.485.086.525.211.977.374 1.356v.207h-2.492c-.121-.276-.215-.642-.284-1.098a8.842 8.842 0 0 1-.103-1.292zm.413-6.082.026 1.679h-2.415c-.68 0-1.287.056-1.821.168-.534.103-.982.262-1.343.477a2.283 2.283 0 0 0-.827.814c-.189.319-.284.693-.284 1.123 0 .44.099.84.297 1.202.198.361.495.65.891.865.405.206.9.31 1.485.31.732 0 1.378-.155 1.937-.465.56-.31 1.003-.689 1.331-1.137.335-.447.516-.882.542-1.304l1.02 1.149c-.06.362-.224.762-.49 1.201a5.777 5.777 0 0 1-2.648 2.26c-.603.259-1.283.388-2.04.388-.947 0-1.778-.185-2.493-.555-.706-.371-1.257-.866-1.653-1.486a3.933 3.933 0 0 1-.581-2.105c0-.749.146-1.407.439-1.976a3.824 3.824 0 0 1 1.266-1.433c.551-.387 1.214-.68 1.988-.878.775-.198 1.641-.297 2.596-.297h2.777zm8.33-5.502v13.974h-2.402v-13.974h2.402zm-2.583-3.706c0-.388.116-.715.348-.982.241-.267.594-.4 1.059-.4.457 0 .805.133 1.046.4.25.267.375.594.375.982 0 .37-.125.689-.375.956-.241.258-.589.387-1.046.387-.465 0-.818-.129-1.059-.387a1.41 1.41 0 0 1-.348-.956zm12.01 15.975c.568 0 1.093-.116 1.576-.349a3.247 3.247 0 0 0 1.188-.955c.31-.414.486-.883.529-1.408h2.273c-.043.826-.323 1.597-.839 2.312-.508.706-1.176 1.278-2.002 1.717-.827.431-1.735.646-2.725.646-1.05 0-1.967-.185-2.751-.555a5.471 5.471 0 0 1-1.937-1.524 6.8 6.8 0 0 1-1.149-2.222 9.354 9.354 0 0 1-.375-2.673v-.542c0-.939.125-1.826.375-2.661a6.79 6.79 0 0 1 1.149-2.234 5.46 5.46 0 0 1 1.937-1.524c.784-.37 1.701-.555 2.751-.555 1.093 0 2.049.224 2.867.672a4.923 4.923 0 0 1 1.924 1.808c.474.757.732 1.618.775 2.582h-2.273a3.432 3.432 0 0 0-.491-1.562 3.06 3.06 0 0 0-1.136-1.111c-.474-.284-1.029-.426-1.666-.426-.732 0-1.347.146-1.847.439-.49.284-.882.672-1.175 1.162a5.429 5.429 0 0 0-.62 1.615 8.908 8.908 0 0 0-.181 1.795v.542c0 .611.061 1.214.181 1.808.121.594.323 1.132.607 1.614.293.483.685.87 1.175 1.163.5.284 1.12.426 1.86.426zm10.641-9.583v16.66h-2.402v-19.346h2.196l.206 2.686zm9.415 4.185v.271c0 1.016-.121 1.959-.362 2.828-.241.861-.594 1.61-1.059 2.247a4.818 4.818 0 0 1-1.691 1.485c-.672.353-1.442.53-2.312.53-.887 0-1.67-.147-2.35-.439a4.635 4.635 0 0 1-1.731-1.279c-.474-.559-.852-1.231-1.136-2.014-.276-.784-.465-1.666-.569-2.648v-1.446c.104-1.033.297-1.959.581-2.777.285-.818.659-1.515 1.124-2.092a4.615 4.615 0 0 1 1.718-1.33c.671-.31 1.446-.465 2.324-.465.878 0 1.658.172 2.338.517a4.69 4.69 0 0 1 1.717 1.446c.465.628.814 1.382 1.046 2.26.241.87.362 1.838.362 2.906zm-2.402.271v-.271c0-.698-.073-1.352-.22-1.963a4.94 4.94 0 0 0-.684-1.627 3.259 3.259 0 0 0-1.162-1.111c-.474-.276-1.038-.413-1.692-.413-.603 0-1.128.103-1.576.31a3.396 3.396 0 0 0-1.123.839c-.31.344-.564.74-.762 1.188-.19.439-.332.895-.426 1.369v3.345c.172.603.413 1.171.723 1.705.31.525.723.951 1.24 1.278.516.319 1.166.478 1.95.478.645 0 1.201-.134 1.666-.4.473-.276.861-.65 1.162-1.124.31-.474.538-1.016.684-1.627.147-.62.22-1.279.22-1.976zm13.689 4.442v-7.193c0-.551-.112-1.029-.336-1.433a2.193 2.193 0 0 0-.981-.956c-.439-.224-.982-.336-1.627-.336-.603 0-1.133.104-1.589.31-.448.207-.801.478-1.059.814a1.78 1.78 0 0 0-.374 1.085h-2.389c0-.5.129-.995.387-1.486.258-.49.628-.934 1.111-1.33a5.546 5.546 0 0 1 1.756-.955c.689-.241 1.455-.362 2.299-.362 1.016 0 1.911.172 2.686.517a4.025 4.025 0 0 1 1.834 1.562c.447.689.671 1.554.671 2.596v6.509c0 .465.039.96.116 1.485.087.525.211.977.375 1.356v.207h-2.492c-.121-.276-.216-.642-.285-1.098a8.983 8.983 0 0 1-.103-1.292zm.413-6.082.026 1.679h-2.415c-.68 0-1.287.056-1.821.168-.534.103-.981.262-1.343.477a2.28 2.28 0 0 0-.826.814c-.19.319-.284.693-.284 1.123 0 .44.099.84.297 1.202.198.361.495.65.891.865.404.206.899.31 1.485.31.732 0 1.377-.155 1.937-.465.56-.31 1.003-.689 1.33-1.137.336-.447.517-.882.543-1.304l1.02 1.149c-.061.362-.224.762-.491 1.201a5.75 5.75 0 0 1-1.072 1.266 5.764 5.764 0 0 1-1.575.994c-.603.259-1.283.388-2.041.388-.947 0-1.778-.185-2.492-.555-.706-.371-1.257-.866-1.653-1.486a3.925 3.925 0 0 1-.582-2.105c0-.749.147-1.407.44-1.976a3.813 3.813 0 0 1 1.265-1.433c.551-.387 1.214-.68 1.989-.878.775-.198 1.64-.297 2.596-.297h2.776zm5.773 7.206c0-.405.125-.745.375-1.02.258-.284.628-.426 1.11-.426.482 0 .848.142 1.098.426.258.275.387.615.387 1.02 0 .396-.129.732-.387 1.007-.25.276-.616.414-1.098.414-.482 0-.852-.138-1.11-.414a1.443 1.443 0 0 1-.375-1.007zm6.302-5.566v-.297c0-1.007.147-1.942.439-2.803a6.678 6.678 0 0 1 1.266-2.26 5.651 5.651 0 0 1 2.002-1.498c.783-.361 1.661-.542 2.634-.542.982 0 1.864.181 2.648.542a5.625 5.625 0 0 1 2.014 1.498c.56.638.986 1.391 1.279 2.26.292.861.439 1.796.439 2.803v.297a8.672 8.672 0 0 1-.439 2.802 6.697 6.697 0 0 1-1.279 2.26 5.853 5.853 0 0 1-2.001 1.498c-.775.353-1.654.53-2.635.53-.982 0-1.864-.177-2.647-.53a5.984 5.984 0 0 1-2.015-1.498 6.825 6.825 0 0 1-1.266-2.26 8.672 8.672 0 0 1-.439-2.802zm2.389-.297v.297c0 .697.082 1.356.246 1.976.163.611.409 1.153.736 1.627.336.474.753.848 1.253 1.124.499.266 1.08.4 1.743.4.654 0 1.227-.134 1.718-.4.499-.276.912-.65 1.239-1.124a5.176 5.176 0 0 0 .736-1.627c.173-.62.259-1.279.259-1.976v-.297c0-.689-.086-1.339-.259-1.95a4.998 4.998 0 0 0-.749-1.64 3.566 3.566 0 0 0-1.239-1.137c-.491-.275-1.068-.413-1.731-.413-.654 0-1.231.138-1.73.413a3.725 3.725 0 0 0-1.24 1.137 5.17 5.17 0 0 0-.736 1.64 7.495 7.495 0 0 0-.246 1.95zm15.717-4.649v11.778h-2.389v-13.974h2.325l.064 2.196zm4.365-2.273-.013 2.221a3.384 3.384 0 0 0-.568-.077 5.797 5.797 0 0 0-.594-.026c-.551 0-1.038.086-1.459.258-.422.172-.78.413-1.072.723-.293.31-.525.68-.698 1.111a5.337 5.337 0 0 0-.322 1.395l-.672.387c0-.844.082-1.636.245-2.376a6.48 6.48 0 0 1 .788-1.963 3.854 3.854 0 0 1 1.343-1.343c.551-.327 1.206-.491 1.963-.491.172 0 .37.022.594.065.224.034.379.073.465.116zm11.003.077h2.17v13.677c0 1.231-.25 2.281-.749 3.151a4.89 4.89 0 0 1-2.092 1.976c-.887.456-1.912.684-3.074.684-.482 0-1.05-.078-1.705-.232a6.914 6.914 0 0 1-1.911-.762 4.775 4.775 0 0 1-1.563-1.434l1.253-1.42c.585.705 1.197 1.196 1.834 1.472a4.854 4.854 0 0 0 1.911.413c.758 0 1.412-.142 1.963-.426a2.977 2.977 0 0 0 1.279-1.266c.31-.551.465-1.231.465-2.04v-10.719l.219-3.074zm-9.621 7.142v-.271c0-1.068.125-2.036.374-2.906.259-.878.625-1.632 1.098-2.26a4.907 4.907 0 0 1 1.744-1.446c.68-.345 1.446-.517 2.298-.517.879 0 1.645.155 2.299.465a4.42 4.42 0 0 1 1.679 1.33c.465.577.831 1.274 1.098 2.092.267.818.452 1.744.555 2.777v1.188c-.095 1.024-.28 1.946-.555 2.764-.267.817-.633 1.515-1.098 2.092a4.59 4.59 0 0 1-1.679 1.33c-.663.301-1.438.452-2.324.452-.836 0-1.593-.177-2.273-.53a5.173 5.173 0 0 1-1.731-1.485c-.482-.637-.852-1.386-1.111-2.247a10.234 10.234 0 0 1-.374-2.828zm2.389-.271v.271a8.9 8.9 0 0 0 .207 1.963 5.35 5.35 0 0 0 .658 1.614c.302.465.685.831 1.15 1.098.465.258 1.02.387 1.666.387.792 0 1.446-.168 1.963-.503.516-.336.925-.78 1.227-1.331a7.707 7.707 0 0 0 .723-1.795v-3.112a6.355 6.355 0 0 0-.439-1.369 4.217 4.217 0 0 0-.749-1.188 3.234 3.234 0 0 0-1.124-.839c-.448-.207-.973-.31-1.575-.31-.655 0-1.219.137-1.692.413a3.3 3.3 0 0 0-1.15 1.111 5.325 5.325 0 0 0-.658 1.627 8.894 8.894 0 0 0-.207 1.963zm21.347-11.701-7.838 20.418h-2.054l7.852-20.418h2.04zm10.745 15.097c0-.344-.077-.663-.232-.956-.147-.301-.452-.572-.917-.813-.456-.25-1.145-.465-2.066-.646a16.222 16.222 0 0 1-2.105-.581 6.375 6.375 0 0 1-1.589-.814 3.41 3.41 0 0 1-.994-1.123c-.233-.431-.349-.934-.349-1.511 0-.551.121-1.072.362-1.563.249-.49.598-.925 1.046-1.304a5.075 5.075 0 0 1 1.64-.891c.637-.215 1.347-.323 2.131-.323 1.119 0 2.075.198 2.867.594.792.396 1.399.926 1.821 1.589.421.654.632 1.381.632 2.182h-2.389a2.05 2.05 0 0 0-.349-1.124c-.223-.37-.555-.675-.994-.916-.43-.242-.96-.362-1.588-.362-.663 0-1.201.103-1.615.31-.404.198-.701.452-.891.762-.181.31-.271.637-.271.981 0 .259.043.491.129.698.095.198.258.383.491.555.232.164.56.319.981.465.422.146.96.293 1.615.439 1.145.258 2.088.568 2.828.93.74.361 1.291.805 1.653 1.33.362.525.542 1.162.542 1.911 0 .612-.129 1.171-.387 1.679-.25.508-.616.947-1.098 1.317-.473.362-1.042.646-1.704.853-.655.198-1.391.297-2.209.297-1.231 0-2.273-.22-3.125-.659-.852-.439-1.498-1.007-1.937-1.704-.439-.698-.659-1.434-.659-2.209h2.402c.035.655.224 1.175.568 1.563.345.379.767.65 1.266.813.499.155.994.233 1.485.233.655 0 1.201-.086 1.64-.258.448-.173.788-.409 1.021-.711.232-.301.348-.645.348-1.033zm4.895-3.125v-.297a8.65 8.65 0 0 1 .439-2.803 6.676 6.676 0 0 1 1.265-2.26 5.66 5.66 0 0 1 2.002-1.498c.784-.361 1.662-.542 2.635-.542.981 0 1.864.181 2.647.542a5.628 5.628 0 0 1 2.015 1.498 6.554 6.554 0 0 1 1.278 2.26 8.65 8.65 0 0 1 .439 2.803v.297a8.645 8.645 0 0 1-.439 2.802 6.695 6.695 0 0 1-1.278 2.26 5.857 5.857 0 0 1-2.002 1.498c-.775.353-1.653.53-2.634.53-.982 0-1.864-.177-2.648-.53a5.993 5.993 0 0 1-2.015-1.498 6.822 6.822 0 0 1-1.265-2.26 8.645 8.645 0 0 1-.439-2.802zm2.389-.297v.297c0 .697.082 1.356.245 1.976.164.611.409 1.153.736 1.627.336.474.754.848 1.253 1.124.499.266 1.081.4 1.744.4.654 0 1.226-.134 1.717-.4a3.61 3.61 0 0 0 1.24-1.124 5.221 5.221 0 0 0 .736-1.627c.172-.62.258-1.279.258-1.976v-.297c0-.689-.086-1.339-.258-1.95a5.019 5.019 0 0 0-.749-1.64 3.56 3.56 0 0 0-1.24-1.137c-.491-.275-1.067-.413-1.73-.413-.655 0-1.231.138-1.731.413a3.725 3.725 0 0 0-1.24 1.137 5.191 5.191 0 0 0-.736 1.64 7.538 7.538 0 0 0-.245 1.95zm18.919 5.424c.569 0 1.094-.116 1.576-.349a3.247 3.247 0 0 0 1.188-.955c.31-.414.486-.883.53-1.408h2.272c-.043.826-.322 1.597-.839 2.312-.508.706-1.175 1.278-2.002 1.717-.826.431-1.735.646-2.725.646-1.05 0-1.967-.185-2.75-.555a5.475 5.475 0 0 1-1.938-1.524 6.818 6.818 0 0 1-1.149-2.222 9.354 9.354 0 0 1-.374-2.673v-.542c0-.939.124-1.826.374-2.661a6.809 6.809 0 0 1 1.149-2.234 5.464 5.464 0 0 1 1.938-1.524c.783-.37 1.7-.555 2.75-.555 1.094 0 2.049.224 2.867.672a4.926 4.926 0 0 1 1.925 1.808c.473.757.731 1.618.774 2.582h-2.272a3.456 3.456 0 0 0-.491-1.562 3.07 3.07 0 0 0-1.137-1.111c-.473-.284-1.029-.426-1.666-.426-.731 0-1.347.146-1.846.439a3.242 3.242 0 0 0-1.176 1.162 5.427 5.427 0 0 0-.619 1.615 8.836 8.836 0 0 0-.181 1.795v.542c0 .611.06 1.214.181 1.808.12.594.322 1.132.607 1.614.292.483.684.87 1.175 1.163.499.284 1.119.426 1.859.426zm20.702-4.623v1.963H305.16v-1.408l8.42-13.031h1.95l-2.092 3.771-5.566 8.705h10.874zm-2.622-12.476v18.804h-2.389v-18.804h2.389zm13.186 15.097c0-.344-.078-.663-.233-.956-.146-.301-.452-.572-.916-.813-.457-.25-1.146-.465-2.067-.646a16.267 16.267 0 0 1-2.105-.581 6.368 6.368 0 0 1-1.588-.814 3.413 3.413 0 0 1-.995-1.123c-.232-.431-.348-.934-.348-1.511a3.5 3.5 0 0 1 .361-1.563c.25-.49.599-.925 1.046-1.304a5.086 5.086 0 0 1 1.64-.891c.638-.215 1.348-.323 2.131-.323 1.12 0 2.075.198 2.867.594.792.396 1.399.926 1.821 1.589a3.94 3.94 0 0 1 .633 2.182h-2.389a2.05 2.05 0 0 0-.349-1.124c-.224-.37-.555-.675-.994-.916-.431-.242-.96-.362-1.589-.362-.663 0-1.201.103-1.614.31-.405.198-.702.452-.891.762-.181.31-.271.637-.271.981 0 .259.043.491.129.698.095.198.258.383.491.555.232.164.559.319.981.465.422.146.96.293 1.614.439 1.145.258 2.088.568 2.829.93.74.361 1.291.805 1.653 1.33.361.525.542 1.162.542 1.911 0 .612-.129 1.171-.387 1.679-.25.508-.616.947-1.098 1.317-.474.362-1.042.646-1.705.853-.654.198-1.39.297-2.208.297-1.231 0-2.273-.22-3.125-.659-.853-.439-1.498-1.007-1.938-1.704-.439-.698-.658-1.434-.658-2.209h2.402c.034.655.224 1.175.568 1.563.345.379.766.65 1.266.813.499.155.994.233 1.485.233.654 0 1.201-.086 1.64-.258.448-.173.788-.409 1.02-.711a1.64 1.64 0 0 0 .349-1.033zm4.894-3.125v-.297a8.65 8.65 0 0 1 .44-2.803 6.66 6.66 0 0 1 1.265-2.26 5.651 5.651 0 0 1 2.002-1.498c.783-.361 1.662-.542 2.634-.542.982 0 1.864.181 2.648.542a5.625 5.625 0 0 1 2.014 1.498c.56.638.986 1.391 1.279 2.26a8.65 8.65 0 0 1 .439 2.803v.297a8.645 8.645 0 0 1-.439 2.802 6.697 6.697 0 0 1-1.279 2.26 5.853 5.853 0 0 1-2.001 1.498c-.775.353-1.653.53-2.635.53-.981 0-1.864-.177-2.647-.53a5.984 5.984 0 0 1-2.015-1.498 6.805 6.805 0 0 1-1.265-2.26 8.645 8.645 0 0 1-.44-2.802zm2.39-.297v.297c0 .697.081 1.356.245 1.976.164.611.409 1.153.736 1.627.336.474.753.848 1.253 1.124.499.266 1.08.4 1.743.4.655 0 1.227-.134 1.718-.4.499-.276.912-.65 1.24-1.124a5.221 5.221 0 0 0 .736-1.627c.172-.62.258-1.279.258-1.976v-.297c0-.689-.086-1.339-.258-1.95a5.04 5.04 0 0 0-.749-1.64 3.57 3.57 0 0 0-1.24-1.137c-.491-.275-1.068-.413-1.731-.413-.654 0-1.231.138-1.73.413a3.725 3.725 0 0 0-1.24 1.137 5.191 5.191 0 0 0-.736 1.64 7.495 7.495 0 0 0-.245 1.95z"/><path fill="#211D1D" d="m441.876 427.026-4.135-9.333h1.674l2.892 6.848 2.891-6.848h1.674l-4.134 9.333h-.862zm-4.439 0v-9.333h1.623v9.333h-1.623zm8.116 0v-9.333h1.623v9.333h-1.623zm-14.203 0v-8.521h1.623v8.521h-1.623zm-2.84-7.913v-1.42h7.304v1.42h-7.304z"/><defs><linearGradient id="b" x1="472.911" x2="6.564" y1="237.126" y2="237.126" gradientUnits="userSpaceOnUse"><stop stop-color="#345CB2"/><stop offset="1" stop-color="#55C3F2"/></linearGradient><linearGradient id="d" x1="58.797" x2="420.676" y1="237.127" y2="237.127" gradientUnits="userSpaceOnUse"><stop stop-color="#345CB2"/><stop offset="1" stop-color="#55C3F2"/></linearGradient></defs></svg>