<svg xmlns="http://www.w3.org/2000/svg" width="240" height="40" fill="none"><path fill="#fff" d="M58.912 14.303a3.79 3.79 0 0 0-2.051-.534 3.908 3.908 0 0 0-2.072.534 4.125 4.125 0 0 0-1.252 1.128c-.102.123-.287.164-.41.061-.04-.02-.061-.061-.082-.102a3.272 3.272 0 0 0-.513-.677 3.243 3.243 0 0 0-1.128-.698 4.585 4.585 0 0 0-1.497-.246 4.21 4.21 0 0 0-1.334.205 3.14 3.14 0 0 0-1.066.636c-.103.103-.206.205-.308.328a.293.293 0 0 1-.41.041.33.33 0 0 1-.103-.225v-.451a.28.28 0 0 0-.287-.288h-1.887a.28.28 0 0 0-.287.287v11.016a.28.28 0 0 0 .287.287h1.887a.28.28 0 0 0 .287-.287v-6.77a3.191 3.191 0 0 1 .287-1.456c.185-.39.472-.697.841-.923a2.37 2.37 0 0 1 1.293-.308c.41-.02.8.082 1.128.308.308.205.554.534.677.882.164.493.225 1.005.205 1.518v6.77a.28.28 0 0 0 .287.287h1.908a.28.28 0 0 0 .287-.288V18.57a2.96 2.96 0 0 1 .308-1.456c.184-.39.472-.698.84-.923.39-.226.842-.329 1.293-.308.41-.02.8.082 1.128.308.308.205.554.533.657.882.164.492.225 1.005.205 1.518v6.769a.28.28 0 0 0 .287.287h1.908a.28.28 0 0 0 .287-.287v-7.057a6.57 6.57 0 0 0-.41-2.44c-.206-.636-.636-1.17-1.19-1.56zm12.389 7.178a3.428 3.428 0 0 1-1.928 1.929c-.39.164-.8.246-1.23.246a3.658 3.658 0 0 1-1.785-.452 3.417 3.417 0 0 1-1.334-1.312 4.481 4.481 0 0 1 0-4.144 3.418 3.418 0 0 1 1.334-1.313 3.662 3.662 0 0 1 1.784-.451c.43 0 .841.082 1.23.246.411.164.8.41 1.129.738.349.35.615.739.8 1.19a4.868 4.868 0 0 1 0 3.323zm.41-6.256a.28.28 0 0 1-.287.287.33.33 0 0 1-.226-.102l-.02-.02a4.224 4.224 0 0 0-1.559-1.19c-.615-.288-1.292-.41-1.97-.41-.984 0-1.969.245-2.83.717-.861.492-1.6 1.19-2.072 2.072-.513.902-.78 1.99-.78 3.261-.04 1.128.247 2.257.78 3.262.492.882 1.21 1.6 2.072 2.072a5.922 5.922 0 0 0 2.83.718c.678 0 1.355-.123 1.97-.41a4.931 4.931 0 0 0 1.559-1.19l.02-.02a.292.292 0 0 1 .41-.042.33.33 0 0 1 .103.226v.902a.28.28 0 0 0 .288.287h1.805a.28.28 0 0 0 .287-.287V14.343a.28.28 0 0 0-.287-.287h-1.805a.28.28 0 0 0-.288.287v.882zm13.539-1.189h-2.215a.266.266 0 0 0-.206.082l-3.712 3.549c-.123.102-.308.102-.41-.02-.041-.062-.082-.124-.082-.185v-11.2a.28.28 0 0 0-.287-.287H76.47a.28.28 0 0 0-.287.287v19.077a.28.28 0 0 0 .287.287h1.867a.28.28 0 0 0 .287-.287v-4.78c0-.164.143-.287.307-.287a.33.33 0 0 1 .226.103l4.184 5.169a.331.331 0 0 0 .226.102h2.297a.28.28 0 0 0 .288-.287.332.332 0 0 0-.062-.184l-4.944-6.134a.285.285 0 0 1 .021-.39l4.267-4.102c.123-.103.123-.287.02-.41a.252.252 0 0 0-.205-.103z"/><path fill="#fff" d="M89.19 16.784a3.119 3.119 0 0 1 1.065-.779 3.8 3.8 0 0 1 1.436-.267 2.94 2.94 0 0 1 1.56.39c.451.267.82.636 1.066 1.108.164.328.287.677.328 1.025a.283.283 0 0 1-.246.329h-5.64a.28.28 0 0 1-.288-.288v-.061c.02-.082.041-.144.061-.226.144-.451.37-.861.657-1.23zm5.578-2.297a6.162 6.162 0 0 0-3.077-.697c-.82-.02-1.66.143-2.44.43a5.466 5.466 0 0 0-1.888 1.231 5.699 5.699 0 0 0-1.21 1.908 7.354 7.354 0 0 0-.43 2.482 6.825 6.825 0 0 0 .717 3.18 5.16 5.16 0 0 0 2.031 2.112 6.09 6.09 0 0 0 3.056.76c1.17.04 2.34-.247 3.385-.78a6.318 6.318 0 0 0 2.154-2.01c.082-.144.041-.329-.082-.41-.02 0-.02-.021-.04-.021l-1.6-.739a.295.295 0 0 0-.37.103 3.834 3.834 0 0 1-1.313 1.251c-.616.328-1.293.472-1.99.472a3.396 3.396 0 0 1-1.846-.472 2.943 2.943 0 0 1-1.17-1.374c-.143-.37-.266-.76-.307-1.15a.283.283 0 0 1 .246-.327h8.472c.164 0 .287-.123.287-.267 0-.123.02-.287.02-.43a7.032 7.032 0 0 0-.677-3.18 4.598 4.598 0 0 0-1.928-2.072zm18.749-.184a3.789 3.789 0 0 0-2.051-.534 3.909 3.909 0 0 0-2.072.534 4.125 4.125 0 0 0-1.251 1.128c-.103.123-.288.164-.411.061-.041-.02-.061-.061-.082-.102a3.221 3.221 0 0 0-.513-.677 3.234 3.234 0 0 0-1.128-.698 4.552 4.552 0 0 0-1.477-.246 4.21 4.21 0 0 0-1.333.205c-.39.144-.759.37-1.067.636-.102.103-.205.205-.307.328a.294.294 0 0 1-.411.041.331.331 0 0 1-.102-.225v-.451a.28.28 0 0 0-.287-.288h-1.929a.28.28 0 0 0-.287.287v11.016a.28.28 0 0 0 .287.287h1.888a.28.28 0 0 0 .287-.287v-6.77a3.187 3.187 0 0 1 .287-1.456c.185-.39.472-.697.841-.923.39-.226.841-.328 1.292-.308.411-.02.8.082 1.129.308.307.205.553.534.676.882a4.24 4.24 0 0 1 .206 1.518v6.77a.28.28 0 0 0 .287.287h1.928a.28.28 0 0 0 .287-.288V18.57a2.962 2.962 0 0 1 .308-1.456 1.99 1.99 0 0 1 .841-.903c.39-.226.841-.328 1.292-.308.41-.02.8.083 1.128.308.308.205.554.534.657.882a4.26 4.26 0 0 1 .205 1.518v6.77c0 .164.143.287.287.287h1.908a.28.28 0 0 0 .287-.288v-7.036a6.584 6.584 0 0 0-.41-2.44c-.185-.678-.616-1.21-1.19-1.6zm11.487 6.79a2.602 2.602 0 0 1-1.293 2.359 3.07 3.07 0 0 1-1.415.348 2.486 2.486 0 0 1-1.272-.308 1.823 1.823 0 0 1-.738-.923 4.435 4.435 0 0 1-.246-1.456v-6.77a.28.28 0 0 0-.288-.286h-1.969a.28.28 0 0 0-.287.287V21.4a5.8 5.8 0 0 0 .472 2.42c.287.657.759 1.19 1.374 1.56a4.15 4.15 0 0 0 2.154.533 4.088 4.088 0 0 0 2.072-.513c.349-.205.656-.492.923-.8.102-.123.287-.123.41-.02a.328.328 0 0 1 .103.225v.575a.28.28 0 0 0 .287.287h1.908a.28.28 0 0 0 .287-.287V14.364a.28.28 0 0 0-.287-.287h-1.908a.28.28 0 0 0-.287.287v6.729zm11.036-1.54a17.663 17.663 0 0 0-1.785-.84c-.451-.165-.861-.35-1.251-.514a3.271 3.271 0 0 1-.902-.595 1.054 1.054 0 0 1-.349-.758.864.864 0 0 1 .41-.78 1.749 1.749 0 0 1 1.005-.246c.575 0 1.149.143 1.662.43.41.226.8.534 1.128.883.103.123.287.123.41.02l1.128-1.046c.124-.103.124-.287.021-.41a4.721 4.721 0 0 0-.944-.862 5.716 5.716 0 0 0-1.497-.759 5.802 5.802 0 0 0-1.785-.287 5.07 5.07 0 0 0-1.907.349 3.321 3.321 0 0 0-1.457 1.025 3.063 3.063 0 0 0-.041 3.447c.349.45.78.82 1.272 1.087a14.67 14.67 0 0 0 1.518.718c.513.184.964.369 1.354.553.349.165.677.37.923.657.226.246.349.574.349.902.02.37-.144.718-.452.965a1.92 1.92 0 0 1-1.189.348c-.411 0-.821-.082-1.211-.246a4.13 4.13 0 0 1-1.107-.677 6.348 6.348 0 0 1-.841-.82c-.103-.123-.288-.123-.411-.02l-1.169 1.045c-.123.103-.123.267-.041.39.308.39.636.739 1.026 1.046a6.71 6.71 0 0 0 1.702.985 5.89 5.89 0 0 0 2.154.39 4.645 4.645 0 0 0 2.154-.472 3.365 3.365 0 0 0 1.928-3.139 2.86 2.86 0 0 0-.492-1.723c-.349-.451-.8-.82-1.292-1.087m3.61 6.113h1.887a.28.28 0 0 0 .287-.287V14.322a.28.28 0 0 0-.287-.287h-1.887a.281.281 0 0 0-.288.287v11.016c0 .164.124.287.288.287zm.943-17.845c-.43 0-.841.163-1.128.45a1.463 1.463 0 0 0-.472 1.129c0 .43.165.82.472 1.107a1.676 1.676 0 0 0 2.277 0 1.52 1.52 0 0 0 .472-1.107 1.46 1.46 0 0 0-.472-1.129 1.544 1.544 0 0 0-1.149-.45zm7.2 8.696a3.65 3.65 0 0 1 1.908-.512c.554 0 1.087.082 1.62.266.493.164.965.41 1.375.718.123.103.266.205.369.328a.29.29 0 0 0 .41 0 .262.262 0 0 0 .082-.205v-1.825a.262.262 0 0 0-.082-.206 4.175 4.175 0 0 0-1.579-.902 7.282 7.282 0 0 0-2.298-.37 6.534 6.534 0 0 0-3.159.76 5.676 5.676 0 0 0-2.215 2.133 6.595 6.595 0 0 0 0 6.297 5.875 5.875 0 0 0 2.215 2.154c.965.513 2.052.78 3.159.78.78 0 1.559-.103 2.298-.349a3.963 3.963 0 0 0 1.579-.923.262.262 0 0 0 .082-.205v-1.826a.28.28 0 0 0-.287-.287.313.313 0 0 0-.205.082 1.943 1.943 0 0 1-.369.328 4.36 4.36 0 0 1-1.354.739 5 5 0 0 1-1.641.266 3.835 3.835 0 0 1-1.908-.492 3.67 3.67 0 0 1-1.333-1.354 4.05 4.05 0 0 1-.492-2.01c-.021-.697.164-1.374.492-1.99a3.366 3.366 0 0 1 1.333-1.395zm-113.661-.389c0-4.82-.02-8.985 0-10.523 0-3.2-1.415-4.144-2.256-4.431-1.292-.43-2.81.205-3.857 1.62-.512.698-3.138 4.35-5.969 8.288l1.149 2.277a2747.75 2747.75 0 0 1 6.646-9.231c.472-.657 1.026-.903 1.313-.8.328.102.697.861.697 2.277 0 1.538 0 5.702.02 10.523 0 7.261.021 16.164 0 18.38-2.83-5.642-11.753-23.365-12.697-25.273-1.046-2.092-2.153-3.035-3.569-3.035h-.04c-1.621.02-2.79 1.066-3.59 3.2-.124.328-.329.964-.616 1.846-.246.759-.554 1.702-.903 2.769l1.806 1.764c.512-1.497.943-2.851 1.25-3.836.268-.82.473-1.477.575-1.764.636-1.723 1.231-1.723 1.477-1.723.451 0 .964.595 1.56 1.785.943 1.887 9.804 19.507 12.676 25.21a6.112 6.112 0 0 1-.39-.37c-1.825-1.784-8.246-8.081-11.528-11.302l-1.333 1.867c3.364 3.302 9.497 9.333 11.282 11.077 1.23 1.19 2.359 1.784 3.364 1.784.328 0 .656-.061.944-.184 1.6-.657 1.969-2.749 1.969-3.426.04-1.354.02-10.626.02-18.77z"/><path fill="#fff" d="M16.635 22.486c.595-.82 1.6-2.215 2.79-3.897l-1.149-2.277-4.061 5.641-.02.041-.534.759c-1.457 2.051-5.354 7.508-7.18 10.072.841-2.462 2.298-6.77 3.734-10.995L8.41 20.066c-1.6 4.697-3.303 9.682-4.185 12.287-.226-2.051-1.108-9.949-1.641-14.728l-.246-2.154c-.144-1.333.102-2.092.39-2.256.061-.041.143-.041.225-.041.43 0 1.251.328 2.257 1.292.902.882 4.738 4.636 7.138 6.995l1.333-1.846c-2.4-2.36-6.03-5.908-6.913-6.77-1.805-1.743-3.65-2.359-5.066-1.661-.76.37-1.99 1.456-1.641 4.533l.246 2.154a2699.78 2699.78 0 0 1 1.641 14.851c.164 1.518 1.23 2.852 2.564 3.2.246.062.472.103.718.103 1.497 0 2.564-1.23 2.995-1.846 1.723-2.42 5.415-7.61 7.015-9.847l1.395-1.846z"/></svg>