<svg xmlns="http://www.w3.org/2000/svg" width="192" height="80" fill="none"><path fill="#fff" d="M57.665 57.24c-3.129 0-5.665-2.028-5.665-4.53 0-2.503 2.536-4.532 5.665-4.532 3.13 0 5.666 2.029 5.666 4.531 0 2.503-2.537 4.531-5.666 4.531zM71.83 22.4h-5.507c.676.448.726 1.795.726 3.092v11.072c0 1.297-.05 2.619-.726 3.043h5.758c-.676-.35-.701-1.746-.701-3.043V34.22h.45c5.658 0 7.986-2.544 7.986-5.91 0-3.342-2.328-5.91-7.986-5.91zm.376 11.296h-.826V22.898h.826c2.228.075 3.03 1.746 3.03 5.412s-.802 5.337-3.03 5.386zm14.745 6.085c3.08 0 4.832-1.67 5.433-2.718-3.03 1.247-6.134-1.047-7.912-3.666h8.863c0-2.793-1.803-6.31-6.384-6.31-3.805 0-6.359 2.544-6.359 6.335 0 3.79 2.554 6.36 6.36 6.36zm-2.253-11.796c1.627 0 3.805 1.996 4.356 4.764h-4.932c-.626-1.073-1.001-2.195-1.001-3.043 0-1.197.75-1.72 1.577-1.72zm14.955 8.579V22.125c-.6.499-3.38 1.895-4.907 2.045.727.374.727 1.746.727 3.067v9.327c0 1.297-.05 2.619-.727 3.043h5.608c-.676-.35-.7-1.746-.7-3.043zm8.837-9.476c-3.655 0-6.383 2.419-6.383 6.334 0 3.94 2.728 6.36 6.383 6.36 3.681 0 6.409-2.42 6.409-6.36 0-3.915-2.728-6.334-6.409-6.334zm0 12.344c-1.452 0-1.902-2.145-1.902-6.01 0-3.84.45-5.96 1.902-5.96s1.928 2.12 1.928 5.96c0 3.866-.476 6.01-1.928 6.01zm-34.281 9.354 2.303-3.666c-.175.125-.376.175-.626.175-1.051 0-2.879-.748-5.132-.748-2.804 0-4.957 1.222-4.957 3.815 0 1.322.876 2.394 2.178 3.068 2.904 1.546 7.36 1.995 7.36 3.766 0 .523-.475.997-1.552.997-1.878 0-5.858-1.621-7.185-4.09-.626.499-1.001 1.222-1.001 1.945 0 1.571 1.577 3.192 5.657 3.192 4.206 0 5.558-2.02 5.558-4.164 0-5.138-9.338-4.564-9.338-6.833 0-.474.651-.948 1.753-.948 2.478 0 4.23 1.521 4.982 3.491zm8.389 8.454c1.027 0 1.678-.324 2.003-.698h-.05c-.851 0-1.427-.648-1.427-2.893v-8.304h1.953v-.648h-1.953v-3.018c-.576.623-3.054 3.017-5.533 3.666h1.327v8.18c0 2.867 1.828 3.715 3.68 3.715zm16.332-3.217v-9.776c-.576.474-3.355 1.87-4.907 2.02.751.375.751 1.746.751 3.043l-.025 1.82c0 3.043-.976 4.913-2.178 4.913-1.201 0-1.602-1.77-1.602-3.167v-8.628c-.576.473-3.355 1.87-4.907 2.02.701.374.701 1.945.701 3.242v2.643c0 3.965 2.178 5.087 4.056 5.087 1.852 0 3.354-.922 3.955-2.668v2.494h4.882c-.676-.3-.726-1.746-.726-3.043zm10.628 3.043h4.932c-.726-.35-.751-1.796-.751-3.068l.438-15.023c-.678 1.013-1.704 1.557-2.408 1.84-.849.343-1.182.42-2.211.567v6.083c-.676-1.82-1.903-2.918-3.53-2.918-2.504 0-4.532 1.77-4.532 6.334s2.028 6.36 4.532 6.36c1.627 0 2.854-1.098 3.53-2.943v2.768zm-3.78-6.185c0-3.541.801-5.037 1.652-5.037 1.001 0 2.053 1.995 2.053 5.037 0 3.068-1.052 5.038-2.053 5.038-.826 0-1.652-1.472-1.652-5.038zm13.214-7.331c1.427 0 2.354-.724 2.354-1.97 0-1.223-.927-1.996-2.354-1.996s-2.353.773-2.353 1.995c0 1.247.926 1.97 2.353 1.97zm-2.103 5.76v4.713c0 1.297-.025 2.619-.701 3.043h5.608c-.676-.35-.701-1.746-.701-3.043v-9.776c-.601.474-3.38 1.87-4.907 2.02.701.375.701 1.746.701 3.043zm13.116-4.763c-3.655 0-6.384 2.419-6.384 6.334 0 3.94 2.729 6.36 6.384 6.36 3.68 0 6.409-2.42 6.409-6.36 0-3.915-2.729-6.334-6.409-6.334zm0 12.344c-1.452 0-1.903-2.145-1.903-6.01 0-3.84.451-5.96 1.903-5.96s1.928 2.12 1.928 5.96c0 3.865-.476 6.01-1.928 6.01z"/></svg>