<svg xmlns="http://www.w3.org/2000/svg" width="240" height="40" fill="none"><path fill="#fff" d="M57.025 27.947a5.488 5.488 0 1 1-6.082-8.39 5.489 5.489 0 0 1 6.133 2.193l4.055-2.394A10.19 10.19 0 1 0 44.36 30.91a10.192 10.192 0 0 0 16.75-.61l-4.083-2.354h-.001zM68.199 6h-4.705v28.216h4.702V24.81a5.486 5.486 0 0 1 5.488-5.487 5.489 5.489 0 0 1 5.488 5.486v9.406h4.704v-10.32a9.274 9.274 0 0 0-10.924-9.125 9.278 9.278 0 0 0-4.754 2.413V6zM35.275 6H30.57v21.945a7.053 7.053 0 0 0 8.077 6.98 7.055 7.055 0 0 0 3.616-1.665l-2.272-3.855a2.347 2.347 0 0 1-1.843.89h-.523a2.352 2.352 0 0 1-2.351-2.35v-7.837h4.702v-4.703h-4.702V6zM25.087 6a2.613 2.613 0 1 0 0 5.226 2.613 2.613 0 0 0 0-5.226zm2.351 28.216v-18.81h-4.702v18.81h4.702z"/><path fill="#fff" fill-rule="evenodd" d="M0 34.216h4.702v-5.487h4.313a11.37 11.37 0 0 0 10.501-7.015A11.363 11.363 0 0 0 9.015 6H0v28.216zM4.702 10.7h4.313a6.664 6.664 0 0 1 6.663 6.662 6.661 6.661 0 0 1-6.663 6.662H4.704V10.701h-.002z" clip-rule="evenodd"/></svg>