<svg xmlns="http://www.w3.org/2000/svg" width="240" height="40" fill="none"><path fill="#fff" fill-rule="evenodd" d="M77.92 16.753h-4.484l-4.16 4.698V11h-3.25v18.687h3.25v-3.716l1.628-1.733 3.154 5.45H78.2L73.199 21.8l4.721-5.047zm-67.253 3.189h1.253v-7.763h-1.253v7.763zM6.71 22.738c.516-.608 1.27-.983 2.172-.983 1.865 0 2.925 1.358 2.934 3.278v4.672H10.57V24.99c0-1.206-.64-2.064-1.866-2.064-1.156 0-1.996.876-1.996 2.037v4.752H5.456v-11.22H6.71v4.244zm8.644-7.548c0-1.162.84-2.037 1.996-2.037 1.21 0 1.866.875 1.866 2.063v4.717h1.244V15.27c0-1.93-1.06-3.287-2.925-3.287-.92 0-1.7.393-2.216 1.036v-.849H14.1v7.763h1.253V15.19zM2.277 23.166v3.707c0 1.376.823 1.725 1.76 1.662v1.18c-1.777.213-3.004-.858-3.004-2.832v-3.708H0v-1.223h1.033V20.29h1.244v1.653h1.725v1.223H2.277zm14.924-1.41c-2.111 0-3.828 1.84-3.828 4.081 0 2.278 1.717 4.056 3.906 4.056 1.76 0 3.057-.938 3.591-2.59h-1.33c-.412.901-1.182 1.429-2.26 1.429-1.252 0-2.47-.947-2.627-2.564h6.402c.009-2.76-1.883-4.413-3.853-4.413zm.008 1.16c-1.05 0-2.163.786-2.487 2.108h4.94c-.307-1.26-1.34-2.108-2.453-2.108zm26.957-6.494c-3.52 0-6.375 2.94-6.375 6.807 0 3.868 2.855 6.762 6.376 6.762 3.52 0 6.402-2.885 6.402-6.762s-2.873-6.807-6.403-6.807zm-3.126 6.843c0 2.18 1.401 3.689 3.127 3.689 1.725 0 3.135-1.51 3.126-3.69 0-2.241-1.401-3.796-3.127-3.796-1.725 0-3.126 1.564-3.126 3.797zm17.183 3.716c-1.795 0-3.249-1.68-3.249-3.716 0-2.082 1.454-3.797 3.249-3.797 1.182 0 2.19.75 2.636 1.635h3.477c-.736-2.912-3.056-4.672-6.104-4.672-3.819 0-6.551 3.064-6.551 6.807 0 3.743 2.732 6.762 6.551 6.762 3.083 0 5.395-1.733 6.13-4.672h-3.477c-.42.893-1.462 1.653-2.662 1.653zm37.852-7.29v4.574c0 1.805.814 2.483 2.444 2.385v3.01c-3.722.403-5.693-1.875-5.693-5.422v-4.546h-1.524v-2.94h1.524v-3.287h3.249v3.288h2.294v2.939h-2.294zM31.546 12.26h-7.19v17.436h3.25V23.47h4.01c3.372 0 5.57-2.34 5.57-5.574 0-3.43-2.066-5.637-5.64-5.637zm-3.932 8.164h3.915c1.497 0 2.417-.777 2.417-2.537 0-1.76-.91-2.537-2.417-2.537h-3.915v5.074zm56.813-4.002c-3.574 0-6.498 3.064-6.498 6.807 0 3.743 2.934 6.762 6.498 6.762 3.153 0 5.395-1.787 6.131-4.422h-3.477c-.544 1.028-1.603 1.51-2.689 1.51-1.524 0-2.759-.983-3.179-2.564h9.581c.482-5.127-2.628-8.093-6.367-8.093zm-.026 2.912c-1.481 0-2.663.956-3.127 2.466h6.306c-.395-1.51-1.629-2.466-3.179-2.466z" clip-rule="evenodd"/></svg>