<svg xmlns="http://www.w3.org/2000/svg" width="192" height="80" fill="none"><path fill="#fff" d="m137.264 37.871.534-2.747h-4.326l.8-4.12h-2.884l-.801 4.12h-4.326l.8-4.12h-2.884l-.801 4.12h-4.327l-.534 2.747h4.327l-.8 4.121h-4.327l-.533 2.747h4.327l-.802 4.12h2.885l.801-4.12h4.327l-.801 4.12h2.885l.801-4.12h4.326l.535-2.747h-4.327l.801-4.121h4.324zm-8.012 4.121h-4.327l.801-4.121h4.326l-.8 4.121zm-65.775 6.859-3.485-7.121h-2.507v7.12H54V31h6.995c3.635 0 5.793 2.482 5.793 5.465 0 2.508-1.528 4.061-3.26 4.688l3.985 7.698h-4.036zM60.77 34.109h-3.286v4.714h3.284c1.528 0 2.532-.978 2.532-2.357 0-1.379-1.003-2.358-2.532-2.358l.002.001zm16.6 14.742v-1.204c-.853.902-2.057 1.353-3.26 1.353-1.304 0-2.357-.426-3.084-1.153-1.053-1.054-1.328-2.281-1.328-3.71v-8.349h3.259v7.897c0 1.78 1.128 2.382 2.156 2.382 1.027 0 2.182-.601 2.182-2.382v-7.897h3.26v13.063H77.37zm10.93 0c-2.658 0-3.785-1.88-3.785-3.735V38.25h-1.38v-2.48h1.38v-3.465h3.258v3.465h2.307v2.482h-2.306v6.663c0 .752.349 1.178 1.127 1.178h1.179v2.759H88.3zm7.216-5.517c0 1.68 1.028 2.908 2.858 2.908 1.429 0 2.131-.401 2.958-1.228l1.981 1.93c-1.33 1.33-2.608 2.056-4.965 2.056-3.083 0-6.041-1.404-6.041-6.693 0-4.262 2.306-6.669 5.69-6.669 3.636 0 5.692 2.657 5.692 6.241v1.455h-8.173zm4.663-3.635c-.35-.777-1.078-1.353-2.183-1.353-1.104 0-1.83.577-2.182 1.353-.2.477-.276.83-.3 1.404h4.967c-.026-.577-.102-.928-.302-1.404zm14.942-3.615c-.599-.318-1.253-.446-2.054-.446-1.404 0-2.658.652-3.285 1.404v-1.254h-3.184v13.063h3.259v-7.873c0-1.655 1.107-2.31 2.107-2.407 1.189-.114 1.838.49 1.838.49l1.319-2.977z"/></svg>