<svg xmlns="http://www.w3.org/2000/svg" width="20" height="20" fill="none"><path fill="#1A3765" d="m8.16 18-.4-2.52a5.356 5.356 0 0 1-.8-.38 5.5 5.5 0 0 1-.74-.5l-2.36 1.08L2 12.4l2.16-1.58a2.378 2.378 0 0 1-.05-.41 9.54 9.54 0 0 1 0-.82c.007-.153.023-.29.05-.41L2 7.6l1.86-3.28L6.22 5.4c.213-.173.46-.34.74-.5.28-.16.547-.28.8-.36L8.16 2h3.68l.4 2.52c.253.093.523.217.81.37.287.153.53.323.73.51l2.36-1.08L18 7.6l-2.16 1.54c.027.133.043.277.05.43a9.882 9.882 0 0 1 0 .85 2.784 2.784 0 0 1-.05.42L18 12.4l-1.86 3.28-2.36-1.08a6.644 6.644 0 0 1-.73.51 3.46 3.46 0 0 1-.81.37l-.4 2.52H8.16zM10 12.6c.72 0 1.333-.253 1.84-.76.507-.507.76-1.12.76-1.84s-.253-1.333-.76-1.84A2.506 2.506 0 0 0 10 7.4c-.72 0-1.333.253-1.84.76A2.506 2.506 0 0 0 7.4 10c0 .72.253 1.333.76 1.84.507.507 1.12.76 1.84.76z"/></svg>