<svg xmlns="http://www.w3.org/2000/svg" width="240" height="40" fill="none"><g fill="#fff" fill-rule="evenodd" clip-rule="evenodd" opacity=".4"><path d="M6.98 10.96v7.336H.23a.23.23 0 0 1-.163-.39l6.912-6.945zm7.529 21.68v-6.78h7.301L14.9 32.8a.23.23 0 0 1-.391-.162z"/><path d="M6.98 18.296h7.3a.23.23 0 0 1 .229.23v7.335H7.437a.458.458 0 0 1-.458-.458v-7.107z"/></g><path fill="#fff" fill-rule="evenodd" d="M14.508 25.86v-7.107a.458.458 0 0 0-.458-.458H6.98V10.96h14.373c.253 0 .458.205.458.458V25.86H14.51z" clip-rule="evenodd"/><path fill="#fff" d="M49.937 16.023H47.05v5.471c0 .456.114.79.342 1 .227.21.56.329.997.355.4.024.888.023 1.464-.005l.081-.004c.043-.002.08.03.082.074v2.93c0 .04-.03.073-.07.077l-.053.006c-2.262.242-3.86.018-4.798-.67-.953-.702-1.43-1.956-1.43-3.763v-5.471H41.46a.078.078 0 0 1-.078-.078v-3.107c0-.042.035-.077.078-.077h2.205v-2.173c0-.062.036-.117.093-.142l3.184-1.405a.077.077 0 0 1 .108.071v3.649h2.888c.043 0 .078.035.078.077v3.107a.078.078 0 0 1-.078.078zm6.216-1c.315-.842.835-1.473 1.561-1.894a4.7 4.7 0 0 1 2.35-.63c.041 0 .077.033.077.076v3.57a.127.127 0 0 1-.139.126c-.976-.088-1.852.127-2.629.646-.814.544-1.22 1.447-1.22 2.71v6.21a.078.078 0 0 1-.078.077h-3.23a.078.078 0 0 1-.078-.078V12.838c0-.042.035-.077.078-.077h3.23c.043 0 .078.035.078.077v2.185zm16.006-2.262h3.23c.043 0 .077.035.077.077v12.998a.077.077 0 0 1-.077.078h-3.23a.078.078 0 0 1-.078-.078v-1.474c-1.014 1.28-2.44 1.92-4.277 1.92-1.75 0-3.25-.67-4.5-2.012s-1.877-2.986-1.877-4.933c0-1.946.626-3.59 1.876-4.932 1.251-1.342 2.751-2.012 4.501-2.012 1.837 0 3.263.64 4.277 1.92v-1.475c0-.042.035-.077.078-.077zm-6.323 9.26c.682.683 1.548 1.025 2.598 1.025 1.05 0 1.92-.346 2.611-1.039.691-.692 1.036-1.582 1.036-2.67 0-1.087-.345-1.977-1.036-2.67-.69-.692-1.562-1.039-2.61-1.039-1.05 0-1.917.347-2.599 1.04-.682.692-1.024 1.582-1.024 2.67 0 1.087.342 1.981 1.024 2.682zm19.807-9.628c1.767 0 3.275.67 4.526 2.012s1.877 2.986 1.877 4.932c0 1.947-.626 3.591-1.877 4.933-1.25 1.341-2.759 2.012-4.526 2.012-1.837 0-3.254-.64-4.25-1.92v6.735a.078.078 0 0 1-.079.078h-3.23a.078.078 0 0 1-.078-.078V12.838c0-.042.035-.077.078-.077h3.23c.043 0 .078.035.078.077v1.475c.997-1.28 2.414-1.92 4.251-1.92zm-3.228 9.627c.682.684 1.548 1.026 2.598 1.026 1.05 0 1.92-.346 2.611-1.039.691-.692 1.036-1.582 1.036-2.67 0-1.087-.345-1.977-1.036-2.67-.69-.692-1.56-1.039-2.61-1.039-1.05 0-1.917.347-2.599 1.04-.682.692-1.023 1.582-1.023 2.67 0 1.087.341 1.981 1.023 2.682zm13.326-10.837c-.56 0-1.045-.207-1.456-.619-.41-.412-.617-.898-.617-1.46 0-.56.206-1.052.617-1.473.411-.42.896-.631 1.456-.631a2 2 0 0 1 1.483.631c.411.421.617.912.617 1.473 0 .562-.206 1.048-.617 1.46a2.02 2.02 0 0 1-1.483.619zm-1.679 14.653V12.838c0-.042.034-.077.077-.077h3.23c.043 0 .078.035.078.077v12.998a.078.078 0 0 1-.078.078h-3.23a.077.077 0 0 1-.077-.078zm-60.632-9.34c0 .351.232.636.695.855a9.25 9.25 0 0 0 1.693.579c.665.167 1.33.377 1.994.631.665.255 1.23.68 1.693 1.276.464.596.695 1.342.695 2.236 0 1.35-.503 2.39-1.509 3.117-1.006.728-2.26 1.092-3.765 1.092-2.634 0-4.448-.997-5.444-2.991a6.687 6.687 0 0 1-.032-.067.078.078 0 0 1 .036-.104h.002l2.847-1.265a.155.155 0 0 1 .2.07l.002.002c.444.852 1.24 1.277 2.389 1.277 1.207 0 1.81-.377 1.81-1.13 0-.352-.231-.637-.695-.856a9.912 9.912 0 0 0-1.692-.592 17.684 17.684 0 0 1-1.995-.657 4.095 4.095 0 0 1-1.692-1.25c-.464-.57-.696-1.284-.696-2.144 0-1.297.477-2.319 1.43-3.064.954-.746 2.139-1.118 3.556-1.118 1.067 0 2.038.24 2.913.723a5.146 5.146 0 0 1 2.017 1.95.077.077 0 0 1-.035.11l-2.855 1.266a.112.112 0 0 1-.14-.041c-.428-.655-1.061-.983-1.9-.983-.437 0-.8.096-1.089.29-.289.192-.433.455-.433.788z"/></svg>